<svg width="250" height="69" viewBox="0 0 250 69" fill="none" xmlns="http://www.w3.org/2000/svg">
<path d="M78.4258 30.0273C78.4258 29.7773 78.4414 29.5273 78.4727 29.2773C78.5117 29.0195 78.5352 28.7539 78.543 28.4805L78.4961 15.0039C78.4492 14.8945 78.4062 14.7422 78.3672 14.5469C78.3359 14.3516 78.3203 14.168 78.3203 13.9961C78.3203 13.8398 78.3477 13.6836 78.4023 13.5273C78.457 13.3711 78.5352 13.2344 78.6367 13.1172C78.7461 12.9922 78.8789 12.8945 79.0352 12.8242C79.1914 12.7461 79.3711 12.707 79.5742 12.707C79.918 12.707 80.2617 12.7266 80.6055 12.7656C80.9492 12.7969 81.3086 12.8125 81.6836 12.8125C81.9805 12.8125 82.2773 12.7969 82.5742 12.7656C82.8789 12.7266 83.1992 12.707 83.5352 12.707C84.6367 12.707 85.6641 12.8594 86.6172 13.1641C87.5703 13.4688 88.3945 13.918 89.0898 14.5117C89.7852 15.0977 90.332 15.8203 90.7305 16.6797C91.1289 17.5391 91.3281 18.5195 91.3281 19.6211C91.3281 20.668 91.1953 21.582 90.9297 22.3633C90.6641 23.1367 90.3008 23.8008 89.8398 24.3555C89.3867 24.9102 88.8516 25.3672 88.2344 25.7266C87.625 26.0781 86.9648 26.3555 86.2539 26.5586C85.5508 26.7617 84.8203 26.9023 84.0625 26.9805C83.3047 27.0586 82.5547 27.0977 81.8125 27.0977C81.7344 27.0977 81.668 27.1016 81.6133 27.1094C81.5586 27.1094 81.5078 27.1094 81.4609 27.1094C81.4141 27.1094 81.3633 27.1094 81.3086 27.1094C81.2617 27.1016 81.2031 27.0977 81.1328 27.0977C81.1328 27.3711 81.1328 27.5898 81.1328 27.7539C81.1328 27.9102 81.1328 28.0391 81.1328 28.1406C81.1406 28.2422 81.1445 28.3281 81.1445 28.3984C81.1445 28.4688 81.1445 28.5508 81.1445 28.6445C81.1445 28.8945 81.168 29.1445 81.2148 29.3945C81.2695 29.6445 81.2969 29.9102 81.2969 30.1914C81.2969 30.4023 81.25 30.582 81.1562 30.7305C81.0625 30.8711 80.9453 30.9844 80.8047 31.0703C80.6641 31.1641 80.5117 31.2305 80.3477 31.2695C80.1836 31.3164 80.0312 31.3398 79.8906 31.3398C79.7031 31.3398 79.5195 31.3086 79.3398 31.2461C79.1602 31.1914 79.0039 31.1094 78.8711 31C78.7383 30.8828 78.6289 30.7461 78.543 30.5898C78.4648 30.4258 78.4258 30.2383 78.4258 30.0273ZM81.1445 24.5547C81.3008 24.5625 81.4609 24.5703 81.625 24.5781C81.7969 24.5859 81.957 24.5938 82.1055 24.6016C82.2539 24.6094 82.3867 24.6172 82.5039 24.625C82.6211 24.625 82.7109 24.625 82.7734 24.625C83.6406 24.625 84.3867 24.5547 85.0117 24.4141C85.6445 24.2734 86.1758 24.082 86.6055 23.8398C87.0352 23.5977 87.3828 23.3164 87.6484 22.9961C87.9141 22.668 88.1172 22.3164 88.2578 21.9414C88.3984 21.5586 88.4922 21.1641 88.5391 20.7578C88.5859 20.3438 88.6094 19.9336 88.6094 19.5273C88.6094 18.8789 88.5156 18.3203 88.3281 17.8516C88.1484 17.375 87.9102 16.9766 87.6133 16.6562C87.3164 16.3359 86.9766 16.0781 86.5938 15.8828C86.2188 15.6875 85.832 15.5391 85.4336 15.4375C85.043 15.3281 84.6602 15.2578 84.2852 15.2266C83.9102 15.1875 83.582 15.168 83.3008 15.168C82.9414 15.168 82.5781 15.1758 82.2109 15.1914C81.8516 15.1992 81.4648 15.207 81.0508 15.2148C81.0664 16.2383 81.0781 17.1406 81.0859 17.9219C81.0938 18.6953 81.0977 19.3828 81.0977 19.9844C81.1055 20.5781 81.1094 21.0977 81.1094 21.543C81.1172 21.9883 81.1211 22.3867 81.1211 22.7383C81.1289 23.0898 81.1328 23.4102 81.1328 23.6992C81.1406 23.9883 81.1445 24.2734 81.1445 24.5547ZM94.8672 29.6992C94.8672 29.4727 94.8984 29.25 94.9609 29.0312C95.0312 28.8047 95.0664 28.5664 95.0664 28.3164L94.8906 14.3242C94.8984 13.7305 95 13.293 95.1953 13.0117C95.3984 12.7227 95.7422 12.5781 96.2266 12.5781C96.4922 12.5781 96.7148 12.6016 96.8945 12.6484C97.0742 12.6953 97.2188 12.7773 97.3281 12.8945C97.4375 13.0117 97.5117 13.1641 97.5508 13.3516C97.5977 13.5391 97.6211 13.7734 97.6211 14.0547V15.8125C97.6211 16.2969 97.6172 16.875 97.6094 17.5469C97.6094 18.2109 97.6094 18.9219 97.6094 19.6797C97.6094 20.4375 97.6094 21.2227 97.6094 22.0352C97.6094 22.8398 97.6094 23.6289 97.6094 24.4023C97.6094 25.168 97.6094 25.8945 97.6094 26.582C97.6094 27.2695 97.6133 27.8711 97.6211 28.3867C98.5352 28.3867 99.3047 28.3867 99.9297 28.3867C100.562 28.3789 101.082 28.3672 101.488 28.3516C101.707 28.3359 101.926 28.3125 102.145 28.2812C102.363 28.2422 102.598 28.2227 102.848 28.2227C103.363 28.2227 103.754 28.3398 104.02 28.5742C104.293 28.8086 104.43 29.1523 104.43 29.6055C104.43 29.9102 104.371 30.1562 104.254 30.3438C104.137 30.5234 103.98 30.6641 103.785 30.7656C103.598 30.8594 103.383 30.9219 103.141 30.9531C102.906 30.9844 102.668 31 102.426 31H96.2031C96.0078 31 95.8281 30.9844 95.6641 30.9531C95.5 30.9141 95.3594 30.8477 95.2422 30.7539C95.125 30.6602 95.0312 30.5312 94.9609 30.3672C94.8984 30.1953 94.8672 29.9727 94.8672 29.6992ZM105.848 30.0977C105.848 29.8477 105.883 29.5977 105.953 29.3477C106.023 29.0898 106.152 28.832 106.34 28.5742C106.473 28.3477 106.652 28.0039 106.879 27.543C107.113 27.082 107.375 26.5391 107.664 25.9141C107.953 25.2891 108.262 24.6094 108.59 23.875C108.926 23.1328 109.266 22.3789 109.609 21.6133C109.953 20.8398 110.293 20.0703 110.629 19.3047C110.973 18.5312 111.297 17.8086 111.602 17.1367C111.906 16.457 112.184 15.8438 112.434 15.2969C112.684 14.75 112.895 14.3086 113.066 13.9727C113.09 13.8008 113.137 13.6328 113.207 13.4688C113.277 13.2969 113.371 13.1445 113.488 13.0117C113.605 12.8711 113.746 12.7617 113.91 12.6836C114.074 12.5977 114.266 12.5547 114.484 12.5547C114.766 12.5547 114.992 12.5938 115.164 12.6719C115.344 12.75 115.488 12.8594 115.598 13C115.715 13.1328 115.809 13.2891 115.879 13.4688C115.949 13.6484 116.02 13.8398 116.09 14.043C116.152 14.2227 116.211 14.3945 116.266 14.5586C116.32 14.7148 116.371 14.8359 116.418 14.9219C116.941 15.9688 117.449 17.0234 117.941 18.0859C118.441 19.1484 118.934 20.2305 119.418 21.332C119.91 22.4258 120.406 23.5352 120.906 24.6602C121.406 25.7852 121.926 26.9297 122.465 28.0938L122.688 28.4219C122.75 28.5078 122.824 28.6133 122.91 28.7383C122.996 28.8555 123.074 28.9844 123.145 29.125C123.223 29.2656 123.285 29.4141 123.332 29.5703C123.387 29.7266 123.414 29.8828 123.414 30.0391C123.414 30.5078 123.281 30.8398 123.016 31.0352C122.75 31.2383 122.426 31.3398 122.043 31.3398C121.832 31.3398 121.637 31.3047 121.457 31.2344C121.285 31.1719 121.133 31.0859 121 30.9766C120.867 30.8594 120.762 30.7266 120.684 30.5781C120.605 30.4219 120.555 30.2578 120.531 30.0859C120.312 29.6094 120.109 29.1641 119.922 28.75C119.734 28.3281 119.551 27.9219 119.371 27.5312C119.199 27.1406 119.031 26.7617 118.867 26.3945C118.703 26.0195 118.539 25.6445 118.375 25.2695C118.25 25.2695 118.074 25.2695 117.848 25.2695C117.621 25.2617 117.367 25.25 117.086 25.2344C116.641 25.2344 116.188 25.2305 115.727 25.2227C115.273 25.2148 114.809 25.2109 114.332 25.2109C113.855 25.2031 113.363 25.2031 112.855 25.2109C112.348 25.2109 111.816 25.2227 111.262 25.2461C111.176 25.2539 111.094 25.2617 111.016 25.2695C110.938 25.2695 110.855 25.2695 110.77 25.2695C110.551 25.8008 110.344 26.3086 110.148 26.793C109.953 27.2695 109.777 27.7109 109.621 28.1172C109.465 28.5234 109.324 28.8867 109.199 29.207C109.082 29.5195 108.992 29.7734 108.93 29.9688V29.957C108.883 30.1289 108.828 30.2969 108.766 30.4609C108.711 30.625 108.629 30.7734 108.52 30.9062C108.41 31.0312 108.258 31.1328 108.062 31.2109C107.875 31.2969 107.625 31.3398 107.312 31.3398C106.891 31.3398 106.539 31.2344 106.258 31.0234C105.984 30.8125 105.848 30.5039 105.848 30.0977ZM111.836 22.7148C112 22.7148 112.211 22.7148 112.469 22.7148C112.734 22.7148 113.074 22.7188 113.488 22.7266C113.91 22.7266 114.426 22.7305 115.035 22.7383C115.645 22.7383 116.383 22.7422 117.25 22.75C116.891 21.9688 116.484 21.0898 116.031 20.1133C115.578 19.1289 115.043 17.9844 114.426 16.6797C114.246 17.0781 114.055 17.5156 113.852 17.9922C113.648 18.4688 113.434 18.9648 113.207 19.4805C112.988 19.9961 112.762 20.5273 112.527 21.0742C112.301 21.6211 112.07 22.168 111.836 22.7148ZM126.191 30.25C126.191 29.9219 126.215 29.6445 126.262 29.418C126.309 29.1914 126.336 29.0859 126.344 29.1016C126.359 28.25 126.371 27.3867 126.379 26.5117C126.395 25.6367 126.402 24.7109 126.402 23.7344C126.402 23.1172 126.402 22.4492 126.402 21.7305C126.402 21.0039 126.395 20.2734 126.379 19.5391C126.371 18.7969 126.355 18.0703 126.332 17.3594C126.309 16.6406 126.277 15.9766 126.238 15.3672C126.207 15.1875 126.184 15.0273 126.168 14.8867C126.152 14.7383 126.145 14.582 126.145 14.418C126.145 14.0352 126.227 13.7344 126.391 13.5156C126.555 13.2891 126.82 13.1328 127.188 13.0469C127.344 12.9141 127.516 12.8242 127.703 12.7773C127.898 12.7227 128.086 12.6953 128.266 12.6953C128.453 12.6953 128.621 12.75 128.77 12.8594C128.926 12.9688 129.062 13.0977 129.18 13.2461C129.297 13.3945 129.395 13.5508 129.473 13.7148C129.551 13.8711 129.605 14 129.637 14.1016C129.879 14.4609 130.168 14.8711 130.504 15.332C130.848 15.793 131.219 16.2891 131.617 16.8203C132.023 17.3438 132.453 17.8945 132.906 18.4727C133.359 19.043 133.816 19.6211 134.277 20.207C134.746 20.793 135.211 21.3789 135.672 21.9648C136.133 22.543 136.57 23.1016 136.984 23.6406C137.398 24.1797 137.785 24.6914 138.145 25.1758C138.504 25.6523 138.812 26.082 139.07 26.4648C139.07 24.793 139.062 23.3555 139.047 22.1523C139.039 20.9414 139.027 19.9141 139.012 19.0703C138.996 18.2188 138.977 17.5195 138.953 16.9727C138.93 16.4258 138.91 15.9727 138.895 15.6133C138.879 15.2539 138.863 14.9609 138.848 14.7344C138.84 14.5 138.836 14.2773 138.836 14.0664C138.836 13.7539 138.867 13.5 138.93 13.3047C139 13.1016 139.094 12.9453 139.211 12.8359C139.336 12.7266 139.488 12.6523 139.668 12.6133C139.848 12.5742 140.055 12.5547 140.289 12.5547C140.594 12.5547 140.832 12.6172 141.004 12.7422C141.176 12.8672 141.305 13.0273 141.391 13.2227C141.484 13.4102 141.539 13.625 141.555 13.8672C141.578 14.1016 141.59 14.332 141.59 14.5586V28C141.59 28.2812 141.605 28.5664 141.637 28.8555C141.668 29.1367 141.684 29.4375 141.684 29.7578C141.684 30.0625 141.66 30.3164 141.613 30.5195C141.566 30.7148 141.488 30.875 141.379 31C141.277 31.125 141.141 31.2109 140.969 31.2578C140.805 31.3125 140.605 31.3398 140.371 31.3398C139.934 31.3398 139.582 31.2305 139.316 31.0117C139.059 30.793 138.875 30.5273 138.766 30.2148C138.023 29.1992 137.27 28.1992 136.504 27.2148C135.746 26.2227 134.98 25.2344 134.207 24.25C133.434 23.2578 132.656 22.2617 131.875 21.2617C131.094 20.2539 130.316 19.2305 129.543 18.1914L128.84 17.0898C128.848 18.2852 128.855 19.3516 128.863 20.2891C128.871 21.2188 128.879 22.0508 128.887 22.7852C128.895 23.5117 128.902 24.1562 128.91 24.7188C128.918 25.2734 128.922 25.7734 128.922 26.2188C128.93 26.6562 128.934 27.0586 128.934 27.4258C128.941 27.7852 128.945 28.1367 128.945 28.4805C128.953 28.6836 128.965 28.9023 128.98 29.1367C129.004 29.3633 129.016 29.5859 129.016 29.8047C129.016 30.0078 128.996 30.2031 128.957 30.3906C128.926 30.5781 128.859 30.7422 128.758 30.8828C128.656 31.0234 128.512 31.1328 128.324 31.2109C128.145 31.2969 127.906 31.3398 127.609 31.3398C127.211 31.3398 126.875 31.2422 126.602 31.0469C126.328 30.8516 126.191 30.5859 126.191 30.25ZM146.336 29.6758C146.336 29.543 146.352 29.4023 146.383 29.2539C146.422 29.1055 146.461 28.9688 146.5 28.8438L146.605 28.4688L146.336 14.4531C146.336 14.0703 146.379 13.7734 146.465 13.5625C146.559 13.3516 146.676 13.1953 146.816 13.0938C146.957 12.9922 147.117 12.9336 147.297 12.918C147.484 12.9023 147.672 12.8945 147.859 12.8945H154.035C154.176 12.8789 154.332 12.8594 154.504 12.8359C154.684 12.8047 154.809 12.7891 154.879 12.7891C155.176 12.7891 155.414 12.8164 155.594 12.8711C155.781 12.9258 155.926 13.0078 156.027 13.1172C156.137 13.2188 156.207 13.3477 156.238 13.5039C156.277 13.6602 156.297 13.8438 156.297 14.0547C156.297 14.3516 156.258 14.5898 156.18 14.7695C156.109 14.9492 156.008 15.0898 155.875 15.1914C155.75 15.2852 155.602 15.3477 155.43 15.3789C155.258 15.4102 155.074 15.4258 154.879 15.4258C154.793 15.4258 154.68 15.4258 154.539 15.4258C154.398 15.418 154.25 15.4062 154.094 15.3906C153.336 15.3906 152.723 15.3906 152.254 15.3906C151.793 15.3906 151.422 15.3945 151.141 15.4023C150.867 15.4023 150.656 15.4023 150.508 15.4023C150.367 15.4023 150.242 15.4023 150.133 15.4023H149.043V19.1172C149.09 19.1172 149.145 19.1211 149.207 19.1289C149.277 19.1289 149.383 19.1289 149.523 19.1289C149.664 19.1289 149.855 19.1289 150.098 19.1289C150.348 19.1289 150.68 19.1289 151.094 19.1289C151.508 19.1289 152.02 19.1289 152.629 19.1289C153.238 19.1289 153.977 19.1289 154.844 19.1289C154.93 19.1289 155.027 19.125 155.137 19.1172C155.246 19.1094 155.355 19.0977 155.465 19.082C155.605 19.0664 155.77 19.0508 155.957 19.0352C156.145 19.0195 156.348 19.0117 156.566 19.0117C156.777 19.0117 156.965 19.0547 157.129 19.1406C157.293 19.2266 157.43 19.3359 157.539 19.4688C157.656 19.5938 157.742 19.7305 157.797 19.8789C157.859 20.0273 157.891 20.168 157.891 20.3008C157.891 20.7227 157.75 21.0312 157.469 21.2266C157.195 21.4219 156.84 21.5195 156.402 21.5195L149.043 21.5312V28.5508C149.816 28.5508 150.594 28.5625 151.375 28.5859C152.156 28.6094 152.973 28.6211 153.824 28.6211C154.059 28.6211 154.273 28.6094 154.469 28.5859C154.664 28.5625 154.852 28.5352 155.031 28.5039C155.195 28.4805 155.359 28.4609 155.523 28.4453C155.695 28.4219 155.883 28.4102 156.086 28.4102C156.32 28.4102 156.535 28.4297 156.73 28.4688C156.934 28.5 157.109 28.5625 157.258 28.6562C157.406 28.7422 157.523 28.8633 157.609 29.0195C157.695 29.168 157.738 29.3594 157.738 29.5938C157.738 29.9375 157.68 30.2031 157.562 30.3906C157.445 30.5781 157.285 30.7188 157.082 30.8125C156.887 30.8984 156.66 30.9531 156.402 30.9766C156.152 30.9922 155.891 31 155.617 31H147.73C147.527 31 147.34 30.9766 147.168 30.9297C147.004 30.8828 146.859 30.8086 146.734 30.707C146.609 30.5977 146.512 30.4609 146.441 30.2969C146.371 30.125 146.336 29.918 146.336 29.6758ZM164.723 15.5312C164.176 15.5312 163.609 15.5352 163.023 15.543C162.438 15.5508 161.797 15.5547 161.102 15.5547C160.914 15.5547 160.75 15.5117 160.609 15.4258C160.469 15.3398 160.352 15.2305 160.258 15.0977C160.164 14.957 160.094 14.8008 160.047 14.6289C160 14.457 159.977 14.2852 159.977 14.1133C159.977 13.6523 160.105 13.3359 160.363 13.1641C160.621 12.9844 161.039 12.8945 161.617 12.8945H170.969C171.125 12.8945 171.285 12.9141 171.449 12.9531C171.621 12.9922 171.773 13.0625 171.906 13.1641C172.047 13.2656 172.16 13.3984 172.246 13.5625C172.34 13.7266 172.387 13.9375 172.387 14.1953C172.387 14.3828 172.355 14.5625 172.293 14.7344C172.23 14.9062 172.145 15.0547 172.035 15.1797C171.934 15.3047 171.809 15.4062 171.66 15.4844C171.52 15.5625 171.367 15.6016 171.203 15.6016C171.078 15.6016 170.957 15.5898 170.84 15.5664C170.723 15.543 170.598 15.5312 170.465 15.5312H167.441L167.406 28.75C167.406 28.9375 167.418 29.1211 167.441 29.3008C167.473 29.4805 167.488 29.6758 167.488 29.8867C167.488 30.0586 167.473 30.2305 167.441 30.4023C167.41 30.5742 167.344 30.7305 167.242 30.8711C167.141 31.0117 166.996 31.125 166.809 31.2109C166.621 31.3047 166.375 31.3516 166.07 31.3516C165.711 31.3516 165.438 31.2891 165.25 31.1641C165.062 31.0469 164.926 30.8945 164.84 30.707C164.762 30.5195 164.719 30.3125 164.711 30.0859C164.703 29.8594 164.699 29.6406 164.699 29.4297L164.723 15.5312ZM182.277 30.0977C182.277 29.8477 182.312 29.5977 182.383 29.3477C182.453 29.0898 182.582 28.832 182.77 28.5742C182.902 28.3477 183.082 28.0039 183.309 27.543C183.543 27.082 183.805 26.5391 184.094 25.9141C184.383 25.2891 184.691 24.6094 185.02 23.875C185.355 23.1328 185.695 22.3789 186.039 21.6133C186.383 20.8398 186.723 20.0703 187.059 19.3047C187.402 18.5312 187.727 17.8086 188.031 17.1367C188.336 16.457 188.613 15.8438 188.863 15.2969C189.113 14.75 189.324 14.3086 189.496 13.9727C189.52 13.8008 189.566 13.6328 189.637 13.4688C189.707 13.2969 189.801 13.1445 189.918 13.0117C190.035 12.8711 190.176 12.7617 190.34 12.6836C190.504 12.5977 190.695 12.5547 190.914 12.5547C191.195 12.5547 191.422 12.5938 191.594 12.6719C191.773 12.75 191.918 12.8594 192.027 13C192.145 13.1328 192.238 13.2891 192.309 13.4688C192.379 13.6484 192.449 13.8398 192.52 14.043C192.582 14.2227 192.641 14.3945 192.695 14.5586C192.75 14.7148 192.801 14.8359 192.848 14.9219C193.371 15.9688 193.879 17.0234 194.371 18.0859C194.871 19.1484 195.363 20.2305 195.848 21.332C196.34 22.4258 196.836 23.5352 197.336 24.6602C197.836 25.7852 198.355 26.9297 198.895 28.0938L199.117 28.4219C199.18 28.5078 199.254 28.6133 199.34 28.7383C199.426 28.8555 199.504 28.9844 199.574 29.125C199.652 29.2656 199.715 29.4141 199.762 29.5703C199.816 29.7266 199.844 29.8828 199.844 30.0391C199.844 30.5078 199.711 30.8398 199.445 31.0352C199.18 31.2383 198.855 31.3398 198.473 31.3398C198.262 31.3398 198.066 31.3047 197.887 31.2344C197.715 31.1719 197.562 31.0859 197.43 30.9766C197.297 30.8594 197.191 30.7266 197.113 30.5781C197.035 30.4219 196.984 30.2578 196.961 30.0859C196.742 29.6094 196.539 29.1641 196.352 28.75C196.164 28.3281 195.98 27.9219 195.801 27.5312C195.629 27.1406 195.461 26.7617 195.297 26.3945C195.133 26.0195 194.969 25.6445 194.805 25.2695C194.68 25.2695 194.504 25.2695 194.277 25.2695C194.051 25.2617 193.797 25.25 193.516 25.2344C193.07 25.2344 192.617 25.2305 192.156 25.2227C191.703 25.2148 191.238 25.2109 190.762 25.2109C190.285 25.2031 189.793 25.2031 189.285 25.2109C188.777 25.2109 188.246 25.2227 187.691 25.2461C187.605 25.2539 187.523 25.2617 187.445 25.2695C187.367 25.2695 187.285 25.2695 187.199 25.2695C186.98 25.8008 186.773 26.3086 186.578 26.793C186.383 27.2695 186.207 27.7109 186.051 28.1172C185.895 28.5234 185.754 28.8867 185.629 29.207C185.512 29.5195 185.422 29.7734 185.359 29.9688V29.957C185.312 30.1289 185.258 30.2969 185.195 30.4609C185.141 30.625 185.059 30.7734 184.949 30.9062C184.84 31.0312 184.688 31.1328 184.492 31.2109C184.305 31.2969 184.055 31.3398 183.742 31.3398C183.32 31.3398 182.969 31.2344 182.688 31.0234C182.414 30.8125 182.277 30.5039 182.277 30.0977ZM188.266 22.7148C188.43 22.7148 188.641 22.7148 188.898 22.7148C189.164 22.7148 189.504 22.7188 189.918 22.7266C190.34 22.7266 190.855 22.7305 191.465 22.7383C192.074 22.7383 192.812 22.7422 193.68 22.75C193.32 21.9688 192.914 21.0898 192.461 20.1133C192.008 19.1289 191.473 17.9844 190.855 16.6797C190.676 17.0781 190.484 17.5156 190.281 17.9922C190.078 18.4688 189.863 18.9648 189.637 19.4805C189.418 19.9961 189.191 20.5273 188.957 21.0742C188.73 21.6211 188.5 22.168 188.266 22.7148ZM202.562 29.6992C202.562 29.4727 202.594 29.25 202.656 29.0312C202.727 28.8047 202.762 28.5664 202.762 28.3164L202.586 14.3242C202.594 13.7305 202.695 13.293 202.891 13.0117C203.094 12.7227 203.438 12.5781 203.922 12.5781C204.188 12.5781 204.41 12.6016 204.59 12.6484C204.77 12.6953 204.914 12.7773 205.023 12.8945C205.133 13.0117 205.207 13.1641 205.246 13.3516C205.293 13.5391 205.316 13.7734 205.316 14.0547V15.8125C205.316 16.2969 205.312 16.875 205.305 17.5469C205.305 18.2109 205.305 18.9219 205.305 19.6797C205.305 20.4375 205.305 21.2227 205.305 22.0352C205.305 22.8398 205.305 23.6289 205.305 24.4023C205.305 25.168 205.305 25.8945 205.305 26.582C205.305 27.2695 205.309 27.8711 205.316 28.3867C206.23 28.3867 207 28.3867 207.625 28.3867C208.258 28.3789 208.777 28.3672 209.184 28.3516C209.402 28.3359 209.621 28.3125 209.84 28.2812C210.059 28.2422 210.293 28.2227 210.543 28.2227C211.059 28.2227 211.449 28.3398 211.715 28.5742C211.988 28.8086 212.125 29.1523 212.125 29.6055C212.125 29.9102 212.066 30.1562 211.949 30.3438C211.832 30.5234 211.676 30.6641 211.48 30.7656C211.293 30.8594 211.078 30.9219 210.836 30.9531C210.602 30.9844 210.363 31 210.121 31H203.898C203.703 31 203.523 30.9844 203.359 30.9531C203.195 30.9141 203.055 30.8477 202.938 30.7539C202.82 30.6602 202.727 30.5312 202.656 30.3672C202.594 30.1953 202.562 29.9727 202.562 29.6992ZM215.477 30.1211C215.445 29.9102 215.449 29.6875 215.488 29.4531C215.535 29.2109 215.578 28.9961 215.617 28.8086C215.633 27.9883 215.641 27.1562 215.641 26.3125C215.648 25.4609 215.648 24.5352 215.641 23.5352C215.633 22.5352 215.625 21.4297 215.617 20.2188C215.609 19.0078 215.605 17.6289 215.605 16.082L215.465 14.5C215.465 14.1719 215.48 13.9023 215.512 13.6914C215.543 13.4805 215.605 13.3125 215.699 13.1875C215.801 13.0625 215.938 12.9766 216.109 12.9297C216.289 12.8828 216.52 12.8594 216.801 12.8594C217.191 12.8594 217.578 12.8555 217.961 12.8477C218.344 12.832 218.73 12.8164 219.121 12.8008C219.52 12.7852 219.91 12.7656 220.293 12.7422C220.684 12.7109 221.086 12.6953 221.5 12.6953C221.773 12.6953 222.113 12.7031 222.52 12.7188C222.934 12.7344 223.363 12.793 223.809 12.8945C224.262 12.9883 224.711 13.1367 225.156 13.3398C225.609 13.543 226.012 13.832 226.363 14.207C226.723 14.582 227.012 15.0586 227.23 15.6367C227.457 16.207 227.57 16.9102 227.57 17.7461C227.57 18.4648 227.422 19.125 227.125 19.7266C226.828 20.3281 226.449 20.8516 225.988 21.2969C226.184 21.375 226.371 21.4648 226.551 21.5664C226.73 21.668 226.891 21.7734 227.031 21.8828C227.18 21.9844 227.305 22.0859 227.406 22.1875C227.516 22.2812 227.598 22.3594 227.652 22.4219C227.988 22.8359 228.262 23.3047 228.473 23.8281C228.691 24.3438 228.801 24.8555 228.801 25.3633C228.801 26.2383 228.707 26.9922 228.52 27.625C228.34 28.25 228.082 28.7812 227.746 29.2188C227.41 29.6484 227.004 29.9961 226.527 30.2617C226.051 30.5273 225.516 30.7344 224.922 30.8828C224.336 31.0234 223.695 31.1172 223 31.1641C222.312 31.2109 221.59 31.2344 220.832 31.2344C220.699 31.2344 220.512 31.2266 220.27 31.2109C220.027 31.1953 219.762 31.1719 219.473 31.1406C219.184 31.1172 218.887 31.0859 218.582 31.0469C218.277 31.0078 217.996 30.9648 217.738 30.918C217.543 31.0039 217.277 31.0469 216.941 31.0469C216.52 31.0469 216.18 30.9766 215.922 30.8359C215.672 30.6875 215.523 30.4492 215.477 30.1211ZM218.23 20.5469C218.52 20.5859 218.812 20.6211 219.109 20.6523C219.406 20.6758 219.672 20.6875 219.906 20.6875C220.836 20.6875 221.621 20.6523 222.262 20.582C222.902 20.5117 223.422 20.375 223.82 20.1719C224.219 19.9609 224.504 19.6719 224.676 19.3047C224.855 18.9375 224.945 18.457 224.945 17.8633C224.945 17.3711 224.879 16.9531 224.746 16.6094C224.613 16.2656 224.402 15.9883 224.113 15.7773C223.832 15.5586 223.469 15.4023 223.023 15.3086C222.586 15.207 222.062 15.1562 221.453 15.1562C221.227 15.1562 220.855 15.1602 220.34 15.168C219.832 15.168 219.129 15.1875 218.23 15.2266V15.25C218.23 15.2656 218.23 15.2812 218.23 15.2969C218.238 15.3047 218.242 15.3164 218.242 15.332C218.258 16.1367 218.262 16.9531 218.254 17.7812C218.254 18.6094 218.246 19.4805 218.23 20.3945V20.5469ZM218.23 28.5508C218.418 28.582 218.609 28.6133 218.805 28.6445C219 28.6758 219.223 28.7031 219.473 28.7266C219.73 28.75 220.027 28.7695 220.363 28.7852C220.699 28.8008 221.098 28.8086 221.559 28.8086C222.09 28.8086 222.629 28.7773 223.176 28.7148C223.73 28.6523 224.23 28.5156 224.676 28.3047C225.129 28.0938 225.496 27.7891 225.777 27.3906C226.066 26.9844 226.211 26.4453 226.211 25.7734C226.211 25.2188 226.102 24.7539 225.883 24.3789C225.672 24.0039 225.406 23.7031 225.086 23.4766C224.773 23.2422 224.434 23.0781 224.066 22.9844C223.699 22.8828 223.363 22.832 223.059 22.832C222.785 22.832 222.504 22.8359 222.215 22.8438C221.934 22.8516 221.609 22.8633 221.242 22.8789C220.875 22.8867 220.445 22.8984 219.953 22.9141C219.469 22.9219 218.891 22.9297 218.219 22.9375C218.219 23.875 218.219 24.6484 218.219 25.2578C218.219 25.8672 218.219 26.3789 218.219 26.793C218.227 27.1992 218.23 27.5352 218.23 27.8008C218.23 28.0664 218.23 28.3164 218.23 28.5508ZM230.84 30.0977C230.84 29.8477 230.875 29.5977 230.945 29.3477C231.016 29.0898 231.145 28.832 231.332 28.5742C231.465 28.3477 231.645 28.0039 231.871 27.543C232.105 27.082 232.367 26.5391 232.656 25.9141C232.945 25.2891 233.254 24.6094 233.582 23.875C233.918 23.1328 234.258 22.3789 234.602 21.6133C234.945 20.8398 235.285 20.0703 235.621 19.3047C235.965 18.5312 236.289 17.8086 236.594 17.1367C236.898 16.457 237.176 15.8438 237.426 15.2969C237.676 14.75 237.887 14.3086 238.059 13.9727C238.082 13.8008 238.129 13.6328 238.199 13.4688C238.27 13.2969 238.363 13.1445 238.48 13.0117C238.598 12.8711 238.738 12.7617 238.902 12.6836C239.066 12.5977 239.258 12.5547 239.477 12.5547C239.758 12.5547 239.984 12.5938 240.156 12.6719C240.336 12.75 240.48 12.8594 240.59 13C240.707 13.1328 240.801 13.2891 240.871 13.4688C240.941 13.6484 241.012 13.8398 241.082 14.043C241.145 14.2227 241.203 14.3945 241.258 14.5586C241.312 14.7148 241.363 14.8359 241.41 14.9219C241.934 15.9688 242.441 17.0234 242.934 18.0859C243.434 19.1484 243.926 20.2305 244.41 21.332C244.902 22.4258 245.398 23.5352 245.898 24.6602C246.398 25.7852 246.918 26.9297 247.457 28.0938L247.68 28.4219C247.742 28.5078 247.816 28.6133 247.902 28.7383C247.988 28.8555 248.066 28.9844 248.137 29.125C248.215 29.2656 248.277 29.4141 248.324 29.5703C248.379 29.7266 248.406 29.8828 248.406 30.0391C248.406 30.5078 248.273 30.8398 248.008 31.0352C247.742 31.2383 247.418 31.3398 247.035 31.3398C246.824 31.3398 246.629 31.3047 246.449 31.2344C246.277 31.1719 246.125 31.0859 245.992 30.9766C245.859 30.8594 245.754 30.7266 245.676 30.5781C245.598 30.4219 245.547 30.2578 245.523 30.0859C245.305 29.6094 245.102 29.1641 244.914 28.75C244.727 28.3281 244.543 27.9219 244.363 27.5312C244.191 27.1406 244.023 26.7617 243.859 26.3945C243.695 26.0195 243.531 25.6445 243.367 25.2695C243.242 25.2695 243.066 25.2695 242.84 25.2695C242.613 25.2617 242.359 25.25 242.078 25.2344C241.633 25.2344 241.18 25.2305 240.719 25.2227C240.266 25.2148 239.801 25.2109 239.324 25.2109C238.848 25.2031 238.355 25.2031 237.848 25.2109C237.34 25.2109 236.809 25.2227 236.254 25.2461C236.168 25.2539 236.086 25.2617 236.008 25.2695C235.93 25.2695 235.848 25.2695 235.762 25.2695C235.543 25.8008 235.336 26.3086 235.141 26.793C234.945 27.2695 234.77 27.7109 234.613 28.1172C234.457 28.5234 234.316 28.8867 234.191 29.207C234.074 29.5195 233.984 29.7734 233.922 29.9688V29.957C233.875 30.1289 233.82 30.2969 233.758 30.4609C233.703 30.625 233.621 30.7734 233.512 30.9062C233.402 31.0312 233.25 31.1328 233.055 31.2109C232.867 31.2969 232.617 31.3398 232.305 31.3398C231.883 31.3398 231.531 31.2344 231.25 31.0234C230.977 30.8125 230.84 30.5039 230.84 30.0977ZM236.828 22.7148C236.992 22.7148 237.203 22.7148 237.461 22.7148C237.727 22.7148 238.066 22.7188 238.48 22.7266C238.902 22.7266 239.418 22.7305 240.027 22.7383C240.637 22.7383 241.375 22.7422 242.242 22.75C241.883 21.9688 241.477 21.0898 241.023 20.1133C240.57 19.1289 240.035 17.9844 239.418 16.6797C239.238 17.0781 239.047 17.5156 238.844 17.9922C238.641 18.4688 238.426 18.9648 238.199 19.4805C237.98 19.9961 237.754 20.5273 237.52 21.0742C237.293 21.6211 237.062 22.168 236.828 22.7148Z" fill="#FDFDFD"/>
<path d="M45.2415 24.5442C47.59 19.7546 51.9552 16.6551 56.7781 15.7754C56.9653 18.5573 56.4488 21.4249 55.1358 24.1022C52.7873 28.8916 48.4223 31.9914 43.5996 32.8708C43.4126 30.0891 43.9287 27.2216 45.2415 24.5442Z" stroke="#FDFDFD" stroke-width="3.5" stroke-miterlimit="22.9256" stroke-linecap="round" stroke-linejoin="round"/>
<path d="M32.67 1.99989C42.4303 1.99989 51.0891 6.77662 56.4974 14.1493C52.1047 16.7535 46.9936 18.2476 41.5377 18.2476C31.7776 18.2476 23.1188 13.4705 17.7109 6.0983C22.103 3.49387 27.2143 1.99989 32.67 1.99989Z" stroke="#FDFDFD" stroke-width="3.5" stroke-miterlimit="22.9256" stroke-linecap="round" stroke-linejoin="round"/>
<path d="M7.88183 13.4811C4.18741 18.4961 2 24.7182 2 31.4583C2 44.5917 10.3052 55.7589 21.8828 59.8586" stroke="#FDFDFD" stroke-width="3.5" stroke-miterlimit="22.9256" stroke-linecap="round" stroke-linejoin="round"/>
<path d="M17.1899 46.9724L21.8817 59.8587L10.6055 66.5" stroke="#FDFDFD" stroke-width="3.5" stroke-miterlimit="22.9256" stroke-linecap="round" stroke-linejoin="round"/>
<path d="M56.6923 14.4237C60.0384 19.2862 62.0007 25.1998 62.0007 31.578C62.0007 48.1577 48.7404 61.5984 32.3828 61.5984" stroke="#FDFDFD" stroke-width="3.5" stroke-miterlimit="22.9256" stroke-linecap="round" stroke-linejoin="round"/>
<path d="M17.0194 34.9806C17.0194 34.7785 17.0321 34.5764 17.0573 34.3744C17.0889 34.166 17.1078 33.9513 17.1142 33.7302L17.0763 22.8367C17.0384 22.7483 17.0036 22.6251 16.9721 22.4672C16.9468 22.3094 16.9342 22.161 16.9342 22.022C16.9342 21.8957 16.9563 21.7694 17.0005 21.6431C17.0447 21.5168 17.1078 21.4063 17.1899 21.3116C17.2784 21.2105 17.3857 21.1316 17.512 21.0748C17.6383 21.0116 17.7836 20.98 17.9478 20.98C18.2256 20.98 18.5035 20.9958 18.7813 21.0274C19.0592 21.0527 19.3497 21.0653 19.6528 21.0653C19.8928 21.0653 20.1328 21.0527 20.3728 21.0274C20.619 20.9958 20.878 20.98 21.1495 20.98C22.0399 20.98 22.8704 21.1032 23.6408 21.3495C24.4113 21.5958 25.0775 21.9589 25.6396 22.4388C26.2016 22.9125 26.6437 23.4966 26.9657 24.1913C27.2878 24.8859 27.4488 25.6785 27.4488 26.5689C27.4488 27.4151 27.3415 28.154 27.1268 28.7855C26.912 29.4107 26.6184 29.9475 26.2458 30.3958C25.8795 30.8442 25.4469 31.2137 24.948 31.5042C24.4555 31.7883 23.9218 32.0125 23.3472 32.1767C22.7788 32.3409 22.1883 32.4546 21.5758 32.5177C20.9632 32.5809 20.357 32.6125 19.757 32.6125C19.6939 32.6125 19.6402 32.6156 19.596 32.6219C19.5518 32.6219 19.5107 32.6219 19.4729 32.6219C19.435 32.6219 19.3939 32.6219 19.3497 32.6219C19.3118 32.6156 19.2645 32.6125 19.2076 32.6125C19.2076 32.8335 19.2076 33.0103 19.2076 33.1429C19.2076 33.2692 19.2076 33.3734 19.2076 33.4555C19.2139 33.5376 19.2171 33.6071 19.2171 33.6639C19.2171 33.7208 19.2171 33.7871 19.2171 33.8628C19.2171 34.0649 19.236 34.267 19.2739 34.4691C19.3181 34.6712 19.3402 34.8859 19.3402 35.1132C19.3402 35.2837 19.3023 35.429 19.2266 35.549C19.1508 35.6626 19.0561 35.7542 18.9424 35.8237C18.8287 35.8995 18.7056 35.9531 18.5729 35.9847C18.4403 36.0226 18.3172 36.0416 18.2035 36.0416C18.052 36.0416 17.9035 36.0163 17.7583 35.9658C17.6131 35.9216 17.4868 35.8553 17.3794 35.7668C17.272 35.6721 17.1836 35.5616 17.1142 35.4353C17.051 35.3027 17.0194 35.1511 17.0194 34.9806ZM19.2171 30.5569C19.3434 30.5632 19.4729 30.5695 19.6055 30.5758C19.7444 30.5821 19.8739 30.5885 19.9938 30.5948C20.1138 30.6011 20.2212 30.6074 20.3159 30.6137C20.4106 30.6137 20.4833 30.6137 20.5338 30.6137C21.2348 30.6137 21.8379 30.5569 22.3431 30.4432C22.8546 30.3295 23.284 30.1748 23.6313 29.9791C23.9787 29.7833 24.2597 29.5559 24.4744 29.297C24.6891 29.0318 24.8533 28.7476 24.967 28.4445C25.0807 28.135 25.1564 27.8161 25.1943 27.4877C25.2322 27.153 25.2512 26.8215 25.2512 26.4931C25.2512 25.969 25.1754 25.5174 25.0238 25.1385C24.8786 24.7533 24.686 24.4312 24.446 24.1723C24.206 23.9134 23.9313 23.705 23.6219 23.5471C23.3187 23.3892 23.0062 23.2693 22.6841 23.1872C22.3683 23.0987 22.0589 23.0419 21.7558 23.0167C21.4526 22.9851 21.1874 22.9693 20.9601 22.9693C20.6696 22.9693 20.3759 22.9756 20.0791 22.9882C19.7886 22.9945 19.476 23.0009 19.1413 23.0072C19.1539 23.8345 19.1634 24.5639 19.1697 25.1954C19.176 25.8206 19.1792 26.3763 19.1792 26.8625C19.1855 27.3425 19.1887 27.7625 19.1887 28.1224C19.195 28.4824 19.1981 28.8044 19.1981 29.0886C19.2045 29.3728 19.2076 29.6317 19.2076 29.8654C19.2139 30.099 19.2171 30.3295 19.2171 30.5569Z" fill="#FDFDFD"/>
<path d="M28.6011 51.2032C28.6011 51.0011 28.6295 50.7991 28.6863 50.597C28.7432 50.3886 28.8474 50.1802 28.9989 49.9718C29.1063 49.7886 29.2515 49.5108 29.4347 49.1382C29.6241 48.7656 29.8357 48.3267 30.0693 47.8215C30.303 47.3163 30.5524 46.7669 30.8177 46.1732C31.0892 45.5733 31.3639 44.9639 31.6418 44.345C31.9197 43.7198 32.1944 43.0978 32.4659 42.4789C32.7438 41.8537 33.0059 41.2696 33.2521 40.7265C33.4984 40.1771 33.7226 39.6813 33.9247 39.2393C34.1268 38.7972 34.2973 38.4404 34.4362 38.1688C34.4552 38.0299 34.4931 37.8941 34.5499 37.7615C34.6067 37.6226 34.6825 37.4994 34.7772 37.3921C34.872 37.2784 34.9856 37.19 35.1183 37.1269C35.2509 37.0574 35.4056 37.0227 35.5824 37.0227C35.8098 37.0227 35.9929 37.0542 36.1318 37.1174C36.2771 37.1805 36.3939 37.2689 36.4823 37.3826C36.5771 37.49 36.6528 37.6163 36.7097 37.7615C36.7665 37.9068 36.8233 38.0615 36.8802 38.2257C36.9307 38.3709 36.9781 38.5099 37.0223 38.6425C37.0665 38.7688 37.1075 38.8667 37.1454 38.9361C37.5685 39.7824 37.979 40.6349 38.3769 41.4938C38.781 42.3526 39.1789 43.2272 39.5704 44.1177C39.9683 45.0018 40.3693 45.8985 40.7734 46.8079C41.1776 47.7173 41.5976 48.6424 42.0333 49.5834L42.2133 49.8486C42.2638 49.9181 42.3238 50.0034 42.3933 50.1044C42.4627 50.1991 42.5259 50.3033 42.5827 50.417C42.6459 50.5307 42.6964 50.6507 42.7343 50.777C42.7785 50.9033 42.8006 51.0296 42.8006 51.1559C42.8006 51.5348 42.6932 51.8032 42.4785 51.961C42.2638 52.1252 42.0017 52.2073 41.6923 52.2073C41.5218 52.2073 41.3639 52.1789 41.2187 52.1221C41.0797 52.0715 40.9566 52.0021 40.8492 51.9137C40.7419 51.8189 40.6566 51.7116 40.5935 51.5916C40.5303 51.4653 40.4893 51.3327 40.4703 51.1938C40.2935 50.8085 40.1293 50.4486 39.9777 50.1139C39.8262 49.7729 39.6778 49.4445 39.5325 49.1287C39.3936 48.813 39.2578 48.5067 39.1252 48.2099C38.9926 47.9067 38.86 47.6036 38.7273 47.3005C38.6263 47.3005 38.4842 47.3005 38.3011 47.3005C38.1179 47.2942 37.9127 47.2847 37.6854 47.2721C37.3254 47.2721 36.9591 47.2689 36.5865 47.2626C36.2202 47.2563 35.8445 47.2531 35.4593 47.2531C35.0741 47.2468 34.6762 47.2468 34.2657 47.2531C33.8552 47.2531 33.4258 47.2626 32.9774 47.2815C32.908 47.2879 32.8417 47.2942 32.7785 47.3005C32.7154 47.3005 32.6491 47.3005 32.5796 47.3005C32.4028 47.7299 32.2354 48.1404 32.0775 48.5319C31.9197 48.9172 31.7776 49.274 31.6513 49.6023C31.525 49.9307 31.4113 50.2244 31.3103 50.4833C31.2155 50.7359 31.1429 50.9411 31.0924 51.099V51.0896C31.0545 51.2285 31.0103 51.3643 30.9598 51.4969C30.9156 51.6295 30.8493 51.7495 30.7608 51.8568C30.6724 51.9579 30.5493 52.04 30.3914 52.1031C30.2398 52.1726 30.0378 52.2073 29.7852 52.2073C29.4441 52.2073 29.16 52.1221 28.9326 51.9516C28.7116 51.7811 28.6011 51.5316 28.6011 51.2032ZM33.4416 45.2354C33.5742 45.2354 33.7447 45.2354 33.9531 45.2354C34.1678 45.2354 34.4425 45.2386 34.7772 45.2449C35.1183 45.2449 35.5351 45.2481 36.0276 45.2544C36.5202 45.2544 37.117 45.2576 37.818 45.2639C37.5275 44.6324 37.1991 43.9219 36.8328 43.1325C36.4665 42.3368 36.034 41.4117 35.5351 40.357C35.3898 40.6791 35.2351 41.0327 35.0709 41.418C34.9067 41.8032 34.733 42.2042 34.5499 42.621C34.3731 43.0378 34.1899 43.4672 34.0005 43.9093C33.8174 44.3513 33.6311 44.7934 33.4416 45.2354Z" fill="#FDFDFD"/>
<path d="M77.2076 48.383C77.2076 48.2213 77.2146 48.0631 77.2287 47.9084C77.2428 47.7537 77.2498 47.5727 77.2498 47.3652C77.2498 46.4301 77.2463 45.4932 77.2393 44.5545C77.2357 43.6158 77.2199 42.6666 77.1918 41.7068C77.1531 41.633 77.118 41.5521 77.0863 41.4643C77.0582 41.3764 77.0441 41.3008 77.0441 41.2375C77.0441 41.0863 77.0846 40.9598 77.1654 40.8578C77.2498 40.7523 77.3922 40.6996 77.5926 40.6996C77.6945 40.6996 77.7947 40.7137 77.8932 40.7418C77.9916 40.7664 78.0971 40.7787 78.2096 40.7787C78.4557 40.7787 78.7 40.7664 78.9426 40.7418C79.1852 40.7137 79.433 40.6996 79.6861 40.6996C80.2029 40.6996 80.6652 40.7506 81.073 40.8525C81.4844 40.951 81.8447 41.0898 82.1541 41.2691C82.4635 41.4449 82.7271 41.6559 82.9451 41.902C83.1631 42.1445 83.3389 42.4117 83.4725 42.7035C83.6096 42.9918 83.7098 43.2994 83.773 43.6264C83.8363 43.9498 83.868 44.2785 83.868 44.6125C83.868 44.9113 83.8363 45.2312 83.773 45.5723C83.7133 45.9098 83.6131 46.2455 83.4725 46.5795C83.3318 46.91 83.149 47.2281 82.924 47.534C82.699 47.8363 82.4213 48.1035 82.0908 48.3355C81.7604 48.5676 81.3736 48.7539 80.9307 48.8945C80.4912 49.0316 79.9867 49.1002 79.4172 49.1002C79.2836 49.1002 79.15 49.0932 79.0164 49.0791C78.8863 49.0686 78.7545 49.0545 78.6209 49.0369C78.4873 49.0229 78.352 49.0105 78.2148 49C78.0813 48.9859 77.9441 48.9789 77.8035 48.9789C77.5891 48.9789 77.4361 48.9297 77.3447 48.8312C77.2533 48.7328 77.2076 48.5834 77.2076 48.383ZM78.3836 47.8398C78.4574 47.8609 78.5453 47.8785 78.6473 47.8926C78.7527 47.9031 78.8582 47.9119 78.9637 47.9189C79.0691 47.926 79.1676 47.9312 79.259 47.9348C79.3539 47.9348 79.4277 47.9348 79.4805 47.9348C79.9164 47.9348 80.2979 47.8803 80.6248 47.7713C80.9518 47.6623 81.2313 47.5199 81.4633 47.3441C81.6988 47.1684 81.8939 46.9697 82.0486 46.7482C82.2033 46.5268 82.3246 46.3035 82.4125 46.0785C82.5039 45.8535 82.5672 45.6373 82.6023 45.4299C82.6375 45.2225 82.6551 45.0449 82.6551 44.8973C82.6551 44.3137 82.5848 43.8285 82.4441 43.4418C82.307 43.0516 82.1031 42.7404 81.8324 42.5084C81.5652 42.2764 81.2348 42.1129 80.841 42.018C80.4508 41.923 80.0008 41.8756 79.491 41.8756C79.4242 41.8756 79.3416 41.8773 79.2432 41.8809C79.1482 41.8844 79.048 41.8879 78.9426 41.8914C78.8371 41.8949 78.7316 41.9002 78.6262 41.9072C78.5242 41.9143 78.4328 41.9195 78.352 41.923L78.3836 47.8398ZM85.1811 45.8201C85.1811 45.3631 85.2654 44.9342 85.4342 44.5334C85.6064 44.1291 85.8402 43.7775 86.1355 43.4787C86.4344 43.1764 86.7824 42.9391 87.1797 42.7668C87.577 42.591 88.0023 42.5031 88.4559 42.5031C88.9516 42.5031 89.3998 42.591 89.8006 42.7668C90.2049 42.9391 90.5494 43.1764 90.8342 43.4787C91.1225 43.7775 91.3439 44.1291 91.4986 44.5334C91.6533 44.9342 91.7307 45.3631 91.7307 45.8201C91.7307 46.1541 91.6902 46.4687 91.6094 46.7641C91.532 47.0594 91.4213 47.3301 91.2771 47.5762C91.133 47.8223 90.959 48.0437 90.7551 48.2406C90.5547 48.434 90.3332 48.5992 90.0906 48.7363C89.848 48.8699 89.5879 48.9719 89.3102 49.0422C89.0359 49.116 88.7512 49.1529 88.4559 49.1529C88.0129 49.1529 87.5928 49.0738 87.1955 48.9156C86.7982 48.7539 86.4502 48.5289 86.1514 48.2406C85.8525 47.9488 85.6152 47.599 85.4395 47.1912C85.2672 46.7799 85.1811 46.3229 85.1811 45.8201ZM86.3992 45.8201C86.3992 46.1541 86.4467 46.4564 86.5416 46.7271C86.6365 46.9979 86.7719 47.2299 86.9477 47.4232C87.127 47.6131 87.3432 47.7607 87.5963 47.8662C87.8494 47.9682 88.1342 48.0191 88.4506 48.0191C88.7318 48.0191 88.9973 47.9717 89.2469 47.8768C89.4965 47.7818 89.7145 47.643 89.9008 47.4602C90.0906 47.2738 90.24 47.0436 90.349 46.7693C90.4615 46.4951 90.5178 46.1787 90.5178 45.8201C90.5178 45.5248 90.4703 45.2453 90.3754 44.9816C90.284 44.7145 90.1504 44.4824 89.9746 44.2855C89.7988 44.0887 89.5826 43.9322 89.326 43.8162C89.0693 43.7002 88.7775 43.6422 88.4506 43.6422C88.1236 43.6422 87.8336 43.7002 87.5805 43.8162C87.3273 43.9322 87.1129 44.0887 86.9371 44.2855C86.7613 44.4824 86.6277 44.7145 86.5363 44.9816C86.4449 45.2453 86.3992 45.5248 86.3992 45.8201ZM94.8473 41.7332C94.7629 41.7719 94.675 41.7912 94.5836 41.7912C94.4922 41.7877 94.4078 41.7684 94.3305 41.7332C94.2566 41.6945 94.1916 41.64 94.1354 41.5697C94.0791 41.4994 94.0439 41.415 94.0299 41.3166C94.0193 41.2498 94.0211 41.1742 94.0352 41.0898C94.0527 41.002 94.0738 40.9141 94.0984 40.8262C94.1266 40.7348 94.1512 40.6469 94.1723 40.5625C94.1969 40.4746 94.2127 40.3955 94.2197 40.3252C94.2303 40.167 94.2777 40.0352 94.3621 39.9297C94.4465 39.8242 94.573 39.7592 94.7418 39.7346C94.8648 39.7135 94.9809 39.7205 95.0898 39.7557C95.1988 39.7908 95.2797 39.8682 95.3324 39.9877C95.35 40.0264 95.3641 40.0721 95.3746 40.1248C95.3887 40.174 95.3992 40.218 95.4063 40.2566C95.4098 40.2918 95.408 40.3357 95.401 40.3885C95.3975 40.4412 95.3887 40.4975 95.3746 40.5572C95.3605 40.6135 95.343 40.6715 95.3219 40.7312C95.3043 40.7875 95.2867 40.8367 95.2691 40.8789C95.241 40.9387 95.2217 41.0037 95.2111 41.074C95.2041 41.1408 95.1953 41.2023 95.1848 41.2586C95.1742 41.3148 95.1637 41.3658 95.1531 41.4115C95.1426 41.4572 95.125 41.4994 95.1004 41.5381C95.0793 41.5768 95.0477 41.6119 95.0055 41.6436C94.9668 41.6752 94.9141 41.7051 94.8473 41.7332ZM93.9455 48.6045C93.9455 48.5166 93.949 48.4428 93.9561 48.383C93.9666 48.3232 93.9754 48.2582 93.9824 48.1879C93.993 48.1141 94.0018 48.0279 94.0088 47.9295C94.0193 47.8311 94.0246 47.6975 94.0246 47.5287C94.0246 46.8994 94.0229 46.2754 94.0193 45.6566C94.0158 45.0344 94.007 44.377 93.993 43.6844C93.9402 43.6879 93.8805 43.6914 93.8137 43.6949C93.7469 43.6984 93.6766 43.702 93.6027 43.7055C93.5324 43.7055 93.4639 43.7072 93.3971 43.7107C93.3303 43.7107 93.2705 43.7107 93.2178 43.7107C93.1545 43.7107 93.0895 43.702 93.0227 43.6844C92.9594 43.6633 92.9014 43.6299 92.8486 43.5842C92.7959 43.5385 92.752 43.4805 92.7168 43.4102C92.6816 43.3363 92.6641 43.2467 92.6641 43.1412C92.6641 42.9549 92.7133 42.8143 92.8117 42.7193C92.9137 42.6209 93.0332 42.5717 93.1703 42.5717C93.3039 42.5717 93.4357 42.5787 93.5658 42.5928C93.6994 42.6033 93.8295 42.6086 93.9561 42.6086C94.0861 42.6086 94.2162 42.6033 94.3463 42.5928C94.4764 42.5787 94.5994 42.5717 94.7154 42.5717C94.8947 42.5717 95.023 42.6191 95.1004 42.7141C95.1777 42.809 95.2164 42.9408 95.2164 43.1096C95.2164 43.2537 95.2041 43.3961 95.1795 43.5367C95.1549 43.6738 95.1426 43.8215 95.1426 43.9797C95.1426 44.2961 95.1408 44.6143 95.1373 44.9342C95.1338 45.2541 95.1303 45.5793 95.1268 45.9098C95.1268 46.2402 95.125 46.5777 95.1215 46.9223C95.1215 47.2668 95.125 47.6219 95.132 47.9875C95.1883 47.984 95.2393 47.9752 95.285 47.9611C95.3307 47.9471 95.3746 47.933 95.4168 47.9189C95.459 47.9014 95.5029 47.8873 95.5486 47.8768C95.5979 47.8627 95.6523 47.8557 95.7121 47.8557C95.8035 47.8557 95.8773 47.8662 95.9336 47.8873C95.9934 47.9084 96.0408 47.9383 96.076 47.977C96.1111 48.0121 96.1375 48.0578 96.1551 48.1141C96.1727 48.1668 96.1885 48.2248 96.2025 48.2881C96.2271 48.4533 96.1867 48.5852 96.0813 48.6836C95.9758 48.782 95.8316 48.8594 95.6488 48.9156C95.5434 48.9437 95.4344 48.9719 95.3219 49C95.2129 49.0281 95.1092 49.0527 95.0107 49.0738C94.9123 49.0984 94.8227 49.1178 94.7418 49.1318C94.6609 49.1459 94.5977 49.1529 94.552 49.1529C94.3445 49.1529 94.1916 49.1037 94.0932 49.0053C93.9947 48.9104 93.9455 48.7768 93.9455 48.6045ZM98.1959 48.6098C98.1959 48.5465 98.1977 48.4814 98.2012 48.4146C98.2082 48.3479 98.2152 48.2828 98.2223 48.2195C98.2328 48.1246 98.2434 48.0209 98.2539 47.9084C98.2645 47.7959 98.2697 47.6693 98.2697 47.5287C98.2697 47.2545 98.268 46.9961 98.2645 46.7535C98.2645 46.5074 98.2609 46.2543 98.2539 45.9941C98.2539 45.9871 98.2539 45.9766 98.2539 45.9625C98.2539 45.9449 98.2521 45.9115 98.2486 45.8623C98.2486 45.8131 98.2469 45.741 98.2434 45.6461C98.2434 45.5512 98.2416 45.4176 98.2381 45.2453C98.2346 45.073 98.2293 44.8586 98.2223 44.602C98.2188 44.3418 98.2135 44.0254 98.2064 43.6527C98.1607 43.6598 98.1063 43.6668 98.043 43.6738C97.9832 43.6773 97.9111 43.6791 97.8268 43.6791C97.7635 43.6791 97.6984 43.6686 97.6316 43.6475C97.5684 43.6264 97.5086 43.5947 97.4523 43.5525C97.3996 43.5068 97.3557 43.4488 97.3205 43.3785C97.2889 43.3047 97.273 43.215 97.273 43.1096C97.273 42.9197 97.3205 42.7773 97.4154 42.6824C97.5139 42.584 97.6334 42.5348 97.774 42.5348C97.8303 42.5348 97.8848 42.5418 97.9375 42.5559C97.9902 42.5699 98.0465 42.577 98.1063 42.577C98.1766 42.577 98.2486 42.5752 98.3225 42.5717C98.3963 42.5682 98.4684 42.5629 98.5387 42.5559C98.616 42.5488 98.6916 42.5436 98.7654 42.54C98.8428 42.5365 98.9113 42.5348 98.9711 42.5348C99.1152 42.5348 99.2348 42.5822 99.3297 42.6771C99.4246 42.7721 99.4721 42.9057 99.4721 43.0779C99.4721 43.1201 99.4703 43.1693 99.4668 43.2256C99.4668 43.2818 99.4633 43.3363 99.4563 43.3891C99.5758 43.273 99.7111 43.1623 99.8623 43.0568C100.013 42.9514 100.177 42.8582 100.353 42.7773C100.532 42.693 100.724 42.6262 100.928 42.577C101.131 42.5277 101.348 42.5031 101.576 42.5031C102.023 42.5031 102.413 42.577 102.747 42.7246C103.084 42.8687 103.366 43.0797 103.591 43.3574C103.819 43.6316 103.99 43.9691 104.102 44.3699C104.218 44.7707 104.276 45.226 104.276 45.7357C104.276 45.8904 104.266 46.0521 104.245 46.2209C104.223 46.3896 104.194 46.5584 104.155 46.7271C104.12 46.8959 104.076 47.0646 104.023 47.2334C103.974 47.3986 103.918 47.5551 103.854 47.7027C103.935 47.6781 104.013 47.657 104.086 47.6395C104.16 47.6219 104.222 47.6096 104.271 47.6025C104.665 47.5639 104.862 47.7432 104.862 48.1404C104.862 48.1896 104.856 48.2441 104.846 48.3039C104.835 48.3602 104.814 48.4164 104.782 48.4727C104.751 48.5254 104.707 48.5764 104.651 48.6256C104.594 48.6713 104.522 48.71 104.434 48.7416L103.865 48.8734C103.689 48.9262 103.547 48.9701 103.438 49.0053C103.332 49.0439 103.243 49.0738 103.169 49.0949C103.098 49.1195 103.039 49.1354 102.989 49.1424C102.94 49.1529 102.886 49.1564 102.826 49.1529C102.742 49.1529 102.668 49.1318 102.604 49.0896C102.541 49.051 102.488 49.0018 102.446 48.942C102.404 48.8787 102.372 48.8102 102.351 48.7363C102.33 48.6625 102.32 48.5904 102.32 48.5201C102.32 48.4076 102.336 48.2934 102.367 48.1773C102.399 48.0613 102.455 47.9559 102.536 47.8609C102.634 47.7344 102.717 47.592 102.784 47.4338C102.854 47.2756 102.91 47.1051 102.953 46.9223C102.995 46.7395 103.025 46.5479 103.042 46.3475C103.063 46.1471 103.074 45.9432 103.074 45.7357C103.074 45.4967 103.047 45.2541 102.995 45.008C102.946 44.7584 102.859 44.5334 102.736 44.333C102.617 44.1291 102.457 43.9639 102.256 43.8373C102.06 43.7072 101.812 43.6422 101.513 43.6422C101.305 43.6422 101.102 43.6756 100.901 43.7424C100.704 43.8057 100.514 43.8918 100.332 44.0008C100.152 44.1062 99.9836 44.2275 99.8254 44.3646C99.6672 44.5018 99.5283 44.6424 99.4088 44.7865C99.4053 44.9447 99.4018 45.1047 99.3982 45.2664C99.3982 45.4246 99.3982 45.5846 99.3982 45.7463C99.3912 46.0205 99.3859 46.293 99.3824 46.5637C99.3789 46.8344 99.3771 47.1086 99.3771 47.3863C99.3771 47.4672 99.3771 47.5498 99.3771 47.6342C99.3771 47.715 99.3807 47.8012 99.3877 47.8926L99.5301 47.8504C99.5688 47.8398 99.6057 47.8311 99.6408 47.824C99.6795 47.8135 99.7129 47.8082 99.741 47.8082C99.9309 47.8082 100.075 47.8557 100.173 47.9506C100.272 48.042 100.321 48.1773 100.321 48.3566C100.321 48.4902 100.295 48.5975 100.242 48.6783C100.189 48.7557 100.122 48.8172 100.042 48.8629C99.9607 48.9051 99.8711 48.935 99.7727 48.9525C99.6777 48.9701 99.5846 48.9842 99.4932 48.9947C99.4439 49.0018 99.3965 49.007 99.3508 49.0105C99.3051 49.0176 99.2664 49.0264 99.2348 49.0369C99.1223 49.0686 99.0256 49.0949 98.9447 49.116C98.8639 49.1406 98.7936 49.1529 98.7338 49.1529C98.5264 49.1529 98.384 49.1055 98.3066 49.0105C98.2328 48.9156 98.1959 48.782 98.1959 48.6098ZM106.533 50.3447C106.533 50.2639 106.546 50.183 106.57 50.1021C106.598 50.0213 106.635 49.9492 106.681 49.8859C106.73 49.8227 106.788 49.7699 106.855 49.7277C106.925 49.6891 107.001 49.6697 107.082 49.6697C107.141 49.6697 107.213 49.682 107.298 49.7066C107.386 49.7313 107.458 49.7664 107.514 49.8121C107.602 49.893 107.695 49.9738 107.794 50.0547C107.896 50.1355 108.01 50.2076 108.136 50.2709C108.263 50.3342 108.405 50.3852 108.563 50.4238C108.725 50.466 108.913 50.4871 109.128 50.4871C109.339 50.4871 109.557 50.4484 109.782 50.3711C110.01 50.2938 110.218 50.1795 110.404 50.0283C110.594 49.8771 110.748 49.6891 110.868 49.4641C110.991 49.2391 111.053 48.9789 111.053 48.6836C111.053 48.6344 111.051 48.5816 111.047 48.5254C111.044 48.4656 111.042 48.4076 111.042 48.3514C110.951 48.4639 110.843 48.5693 110.72 48.6678C110.597 48.7662 110.453 48.8523 110.288 48.9262C110.123 48.9965 109.931 49.051 109.713 49.0896C109.499 49.1318 109.253 49.1529 108.975 49.1529C108.521 49.1529 108.105 49.0703 107.725 48.9051C107.345 48.7363 107.018 48.5043 106.744 48.209C106.47 47.9102 106.255 47.5586 106.101 47.1543C105.946 46.75 105.867 46.3105 105.863 45.8359C105.856 45.3297 105.932 44.8727 106.09 44.4648C106.252 44.0535 106.475 43.7037 106.76 43.4154C107.045 43.1236 107.38 42.8986 107.767 42.7404C108.154 42.5822 108.574 42.5031 109.028 42.5031C109.509 42.5031 109.926 42.5734 110.277 42.7141C110.629 42.8547 110.928 43.0604 111.174 43.3311C111.191 43.2748 111.214 43.2203 111.242 43.1676C111.271 43.1113 111.306 43.0621 111.348 43.0199C111.394 42.9777 111.445 42.9443 111.501 42.9197C111.561 42.8916 111.631 42.8775 111.712 42.8775C111.831 42.8775 111.928 42.8934 112.002 42.925C112.079 42.9531 112.139 42.9936 112.181 43.0463C112.223 43.099 112.251 43.1623 112.265 43.2361C112.283 43.3064 112.292 43.3838 112.292 43.4682C112.292 43.5455 112.285 43.6229 112.271 43.7002C112.257 43.774 112.25 43.8549 112.25 43.9428C112.25 44.34 112.248 44.7197 112.244 45.0818C112.244 45.4404 112.241 45.7973 112.234 46.1523C112.227 46.5039 112.221 46.8766 112.218 47.2703C112.214 47.6641 112.213 48.0596 112.213 48.4568C112.213 48.9174 112.162 49.3129 112.06 49.6434C111.958 49.9773 111.822 50.2604 111.654 50.4924C111.488 50.7279 111.297 50.9178 111.079 51.0619C110.864 51.2061 110.641 51.3186 110.409 51.3994C110.181 51.4803 109.952 51.5348 109.724 51.5629C109.495 51.591 109.286 51.6051 109.096 51.6051C108.92 51.6051 108.736 51.5893 108.542 51.5576C108.349 51.5295 108.157 51.4873 107.968 51.4311C107.778 51.3748 107.595 51.308 107.419 51.2307C107.247 51.1533 107.094 51.0672 106.96 50.9723C106.83 50.8809 106.727 50.7807 106.649 50.6717C106.572 50.5662 106.533 50.4572 106.533 50.3447ZM107.039 45.8359C107.039 46.1488 107.085 46.4389 107.177 46.7061C107.271 46.9732 107.403 47.2053 107.572 47.4021C107.744 47.5955 107.952 47.7467 108.194 47.8557C108.437 47.9646 108.709 48.0191 109.012 48.0191C109.353 48.0191 109.653 47.9646 109.913 47.8557C110.174 47.7467 110.392 47.5955 110.567 47.4021C110.743 47.2053 110.877 46.9732 110.968 46.7061C111.06 46.4389 111.105 46.1488 111.105 45.8359C111.105 45.5301 111.067 45.24 110.989 44.9658C110.912 44.6881 110.791 44.4473 110.625 44.2434C110.464 44.0359 110.254 43.8725 109.998 43.7529C109.745 43.6299 109.442 43.5684 109.091 43.5684C108.778 43.5684 108.495 43.6281 108.242 43.7477C107.992 43.8637 107.778 44.0236 107.598 44.2275C107.419 44.4314 107.28 44.6723 107.182 44.95C107.087 45.2242 107.039 45.5195 107.039 45.8359ZM118.05 45.0133C118.05 44.2926 118.154 43.6633 118.362 43.1254C118.569 42.5875 118.855 42.1393 119.221 41.7807C119.587 41.4221 120.019 41.1531 120.518 40.9738C121.018 40.7945 121.561 40.7049 122.148 40.7049C122.299 40.7049 122.47 40.7084 122.659 40.7154C122.849 40.7189 123.043 40.7312 123.239 40.7523C123.44 40.7734 123.637 40.8033 123.83 40.842C124.023 40.8807 124.203 40.9316 124.368 40.9949C124.498 41.0441 124.607 41.1145 124.695 41.2059C124.783 41.2973 124.827 41.4291 124.827 41.6014C124.827 41.8018 124.776 41.9635 124.674 42.0865C124.575 42.2061 124.459 42.2658 124.326 42.2658C124.298 42.2658 124.261 42.2623 124.215 42.2553C124.169 42.2482 124.131 42.2359 124.099 42.2184C123.962 42.1445 123.795 42.0848 123.598 42.0391C123.405 41.9934 123.204 41.9564 122.997 41.9283C122.789 41.9002 122.587 41.8809 122.39 41.8703C122.194 41.8598 122.025 41.8545 121.884 41.8545C121.691 41.8545 121.492 41.8791 121.288 41.9283C121.084 41.974 120.884 42.0479 120.687 42.1498C120.494 42.2518 120.309 42.3818 120.133 42.54C119.961 42.6982 119.81 42.8863 119.68 43.1043C119.55 43.3223 119.446 43.5736 119.369 43.8584C119.291 44.1396 119.253 44.4561 119.253 44.8076C119.253 45.2189 119.3 45.5828 119.395 45.8992C119.494 46.2156 119.627 46.4916 119.796 46.7271C119.965 46.9592 120.163 47.1561 120.392 47.3178C120.62 47.476 120.866 47.6043 121.13 47.7027C121.397 47.8012 121.675 47.8715 121.963 47.9137C122.252 47.9559 122.54 47.977 122.828 47.977C122.955 47.977 123.097 47.9752 123.255 47.9717C123.417 47.9646 123.577 47.9471 123.735 47.9189C123.735 47.5744 123.733 47.2809 123.73 47.0383C123.73 46.7957 123.728 46.5795 123.725 46.3896C123.721 46.1998 123.716 46.0258 123.709 45.8676C123.705 45.7094 123.7 45.5406 123.693 45.3613C123.693 45.2348 123.684 45.1082 123.667 44.9816C123.649 44.8516 123.64 44.7127 123.64 44.565C123.64 44.5123 123.651 44.4561 123.672 44.3963C123.696 44.333 123.733 44.275 123.783 44.2223C123.835 44.166 123.904 44.1203 123.988 44.0852C124.073 44.0465 124.178 44.0271 124.305 44.0271C124.512 44.0271 124.672 44.0764 124.785 44.1748C124.901 44.2697 124.959 44.3998 124.959 44.565C124.959 44.6354 124.957 44.7039 124.953 44.7707C124.95 44.834 124.948 44.9025 124.948 44.9764C124.945 45.0889 124.939 45.226 124.932 45.3877C124.929 45.5459 124.925 45.7498 124.922 45.9994C124.918 46.2455 124.915 46.5461 124.911 46.9012C124.908 47.2527 124.906 47.6746 124.906 48.1668C124.902 48.3672 124.876 48.5236 124.827 48.6361C124.778 48.7486 124.711 48.833 124.626 48.8893C124.542 48.942 124.444 48.9736 124.331 48.9842C124.222 48.9947 124.108 49 123.988 49C123.886 49 123.779 49.0053 123.667 49.0158C123.554 49.0264 123.44 49.0387 123.324 49.0527C123.208 49.0668 123.094 49.0791 122.981 49.0896C122.872 49.1002 122.768 49.1055 122.67 49.1055C121.921 49.1055 121.258 48.9947 120.682 48.7732C120.109 48.5518 119.627 48.2547 119.237 47.882C118.847 47.5059 118.551 47.0717 118.351 46.5795C118.151 46.0838 118.05 45.5617 118.05 45.0133ZM126.715 45.8201C126.715 45.3631 126.799 44.9342 126.968 44.5334C127.14 44.1291 127.374 43.7775 127.669 43.4787C127.968 43.1764 128.316 42.9391 128.713 42.7668C129.111 42.591 129.536 42.5031 129.989 42.5031C130.485 42.5031 130.933 42.591 131.334 42.7668C131.738 42.9391 132.083 43.1764 132.368 43.4787C132.656 43.7775 132.878 44.1291 133.032 44.5334C133.187 44.9342 133.264 45.3631 133.264 45.8201C133.264 46.1541 133.224 46.4687 133.143 46.7641C133.066 47.0594 132.955 47.3301 132.811 47.5762C132.667 47.8223 132.493 48.0437 132.289 48.2406C132.088 48.434 131.867 48.5992 131.624 48.7363C131.382 48.8699 131.121 48.9719 130.844 49.0422C130.57 49.116 130.285 49.1529 129.989 49.1529C129.546 49.1529 129.126 49.0738 128.729 48.9156C128.332 48.7539 127.984 48.5289 127.685 48.2406C127.386 47.9488 127.149 47.599 126.973 47.1912C126.801 46.7799 126.715 46.3229 126.715 45.8201ZM127.933 45.8201C127.933 46.1541 127.98 46.4564 128.075 46.7271C128.17 46.9979 128.305 47.2299 128.481 47.4232C128.661 47.6131 128.877 47.7607 129.13 47.8662C129.383 47.9682 129.668 48.0191 129.984 48.0191C130.265 48.0191 130.531 47.9717 130.78 47.8768C131.03 47.7818 131.248 47.643 131.434 47.4602C131.624 47.2738 131.774 47.0436 131.883 46.7693C131.995 46.4951 132.051 46.1787 132.051 45.8201C132.051 45.5248 132.004 45.2453 131.909 44.9816C131.818 44.7145 131.684 44.4824 131.508 44.2855C131.332 44.0887 131.116 43.9322 130.86 43.8162C130.603 43.7002 130.311 43.6422 129.984 43.6422C129.657 43.6422 129.367 43.7002 129.114 43.8162C128.861 43.9322 128.646 44.0887 128.471 44.2855C128.295 44.4824 128.161 44.7145 128.07 44.9816C127.979 45.2453 127.933 45.5248 127.933 45.8201ZM134.414 45.8201C134.414 45.3631 134.498 44.9342 134.667 44.5334C134.839 44.1291 135.073 43.7775 135.368 43.4787C135.667 43.1764 136.015 42.9391 136.412 42.7668C136.81 42.591 137.235 42.5031 137.689 42.5031C138.184 42.5031 138.633 42.591 139.033 42.7668C139.438 42.9391 139.782 43.1764 140.067 43.4787C140.355 43.7775 140.577 44.1291 140.731 44.5334C140.886 44.9342 140.963 45.3631 140.963 45.8201C140.963 46.1541 140.923 46.4687 140.842 46.7641C140.765 47.0594 140.654 47.3301 140.51 47.5762C140.366 47.8223 140.192 48.0437 139.988 48.2406C139.787 48.434 139.566 48.5992 139.323 48.7363C139.081 48.8699 138.821 48.9719 138.543 49.0422C138.269 49.116 137.984 49.1529 137.689 49.1529C137.246 49.1529 136.826 49.0738 136.428 48.9156C136.031 48.7539 135.683 48.5289 135.384 48.2406C135.085 47.9488 134.848 47.599 134.672 47.1912C134.5 46.7799 134.414 46.3229 134.414 45.8201ZM135.632 45.8201C135.632 46.1541 135.679 46.4564 135.774 46.7271C135.869 46.9979 136.005 47.2299 136.18 47.4232C136.36 47.6131 136.576 47.7607 136.829 47.8662C137.082 47.9682 137.367 48.0191 137.683 48.0191C137.965 48.0191 138.23 47.9717 138.48 47.8768C138.729 47.7818 138.947 47.643 139.134 47.4602C139.323 47.2738 139.473 47.0436 139.582 46.7693C139.694 46.4951 139.751 46.1787 139.751 45.8201C139.751 45.5248 139.703 45.2453 139.608 44.9816C139.517 44.7145 139.383 44.4824 139.207 44.2855C139.032 44.0887 138.815 43.9322 138.559 43.8162C138.302 43.7002 138.01 43.6422 137.683 43.6422C137.356 43.6422 137.066 43.7002 136.813 43.8162C136.56 43.9322 136.346 44.0887 136.17 44.2855C135.994 44.4824 135.861 44.7145 135.769 44.9816C135.678 45.2453 135.632 45.5248 135.632 45.8201ZM142.166 45.8359C142.166 45.3578 142.245 44.9166 142.403 44.5123C142.565 44.1045 142.786 43.7529 143.068 43.4576C143.352 43.1588 143.688 42.925 144.075 42.7562C144.462 42.5875 144.882 42.5031 145.335 42.5031C145.539 42.5031 145.741 42.5242 145.942 42.5664C146.142 42.6051 146.332 42.6648 146.511 42.7457C146.694 42.823 146.863 42.9197 147.017 43.0357C147.172 43.1518 147.307 43.2854 147.423 43.4365C147.423 43.3451 147.423 43.215 147.423 43.0463C147.423 42.8775 147.422 42.6771 147.418 42.4451C147.418 42.2131 147.416 41.9547 147.413 41.6699C147.409 41.3852 147.406 41.0828 147.402 40.7629H146.954C146.873 40.7629 146.794 40.7717 146.717 40.7893C146.639 40.8068 146.557 40.8156 146.469 40.8156C146.406 40.8156 146.341 40.8016 146.274 40.7734C146.211 40.7418 146.153 40.6996 146.1 40.6469C146.051 40.5906 146.008 40.5238 145.973 40.4465C145.942 40.3656 145.926 40.2742 145.926 40.1723C145.926 39.9895 145.973 39.8488 146.068 39.7504C146.163 39.652 146.283 39.6027 146.427 39.6027C146.462 39.6027 146.504 39.6045 146.553 39.608C146.603 39.608 146.659 39.6168 146.722 39.6344C146.954 39.6379 147.188 39.6361 147.423 39.6291C147.659 39.6186 147.912 39.6115 148.183 39.608C148.33 39.608 148.446 39.659 148.531 39.7609C148.615 39.8629 148.657 39.9982 148.657 40.167C148.657 40.2865 148.642 40.3797 148.61 40.4465C148.603 40.675 148.598 40.958 148.594 41.2955C148.591 41.6295 148.587 41.9863 148.584 42.366C148.58 42.7457 148.577 43.1324 148.573 43.5262C148.573 43.9199 148.571 44.2891 148.568 44.6336C148.568 44.9746 148.568 45.277 148.568 45.5406C148.568 45.8043 148.568 45.9959 148.568 46.1154C148.568 46.46 148.57 46.7711 148.573 47.0488C148.58 47.323 148.591 47.5393 148.605 47.6975L148.7 47.6395C148.773 47.5973 148.844 47.5604 148.911 47.5287C148.981 47.4971 149.056 47.4777 149.137 47.4707C149.197 47.4637 149.259 47.4707 149.322 47.4918C149.385 47.5094 149.443 47.541 149.496 47.5867C149.549 47.6289 149.593 47.6869 149.628 47.7607C149.663 47.8346 149.68 47.9242 149.68 48.0297C149.68 48.1773 149.64 48.2969 149.559 48.3883C149.482 48.4762 149.401 48.5377 149.317 48.5729C149.232 48.6115 149.151 48.652 149.074 48.6941C148.997 48.7328 148.918 48.7732 148.837 48.8154C148.717 48.8787 148.601 48.9385 148.489 48.9947C148.38 49.051 148.283 49.0791 148.199 49.0791C148.03 49.0791 147.893 49 147.787 48.8418C147.685 48.6801 147.608 48.4656 147.555 48.1984C147.415 48.3426 147.255 48.4727 147.075 48.5887C146.896 48.7047 146.704 48.8049 146.501 48.8893C146.297 48.9736 146.082 49.0387 145.857 49.0844C145.636 49.1301 145.413 49.1529 145.188 49.1529C144.73 49.1529 144.316 49.0668 143.943 48.8945C143.574 48.7223 143.257 48.4867 142.994 48.1879C142.73 47.8891 142.526 47.5393 142.382 47.1385C142.238 46.7342 142.166 46.3 142.166 45.8359ZM143.342 45.8359C143.342 46.1137 143.386 46.3844 143.474 46.648C143.562 46.9082 143.688 47.1402 143.853 47.3441C144.022 47.548 144.226 47.7115 144.465 47.8346C144.704 47.9576 144.975 48.0191 145.277 48.0191C145.509 48.0191 145.741 47.9822 145.973 47.9084C146.205 47.8311 146.418 47.7238 146.611 47.5867C146.808 47.4461 146.979 47.2773 147.123 47.0805C147.267 46.8801 147.365 46.6551 147.418 46.4055C147.418 46.2613 147.418 46.1436 147.418 46.0521C147.418 45.9607 147.416 45.8834 147.413 45.8201C147.413 45.7533 147.413 45.6936 147.413 45.6408C147.413 45.5846 147.413 45.5213 147.413 45.451C147.357 45.1979 147.265 44.9623 147.139 44.7443C147.016 44.5229 146.864 44.3312 146.685 44.1695C146.506 44.0078 146.304 43.8812 146.079 43.7898C145.857 43.6949 145.622 43.6475 145.372 43.6475C145.08 43.6475 144.81 43.7002 144.56 43.8057C144.314 43.9111 144.099 44.0605 143.917 44.2539C143.737 44.4437 143.597 44.674 143.495 44.9447C143.393 45.2119 143.342 45.509 143.342 45.8359ZM155.481 50.3553C155.481 50.2533 155.481 50.0916 155.481 49.8701C155.481 49.6486 155.481 49.3832 155.481 49.0738C155.485 48.768 155.487 48.427 155.487 48.0508C155.487 47.6711 155.487 47.2738 155.487 46.859C155.49 46.4441 155.492 46.0187 155.492 45.5828C155.495 45.1434 155.497 44.7109 155.497 44.2855C155.501 43.8602 155.502 43.4488 155.502 43.0516C155.506 42.6508 155.508 42.2816 155.508 41.9441C155.511 41.6066 155.513 41.3078 155.513 41.0477C155.516 40.784 155.518 40.5748 155.518 40.4201C155.518 40.3568 155.527 40.2936 155.545 40.2303C155.562 40.167 155.596 40.109 155.645 40.0562C155.694 40.0035 155.761 39.9613 155.845 39.9297C155.933 39.898 156.047 39.8822 156.188 39.8822C156.272 39.8822 156.343 39.8998 156.399 39.935C156.455 39.9701 156.501 40.0141 156.536 40.0668C156.575 40.116 156.603 40.1723 156.62 40.2355C156.638 40.2953 156.648 40.3516 156.652 40.4043C156.655 40.5273 156.657 40.6855 156.657 40.8789C156.657 41.0723 156.657 41.3289 156.657 41.6488C156.657 41.9652 156.657 42.3572 156.657 42.8248C156.657 43.2889 156.657 43.8549 156.657 44.5229C156.657 45.1873 156.655 45.966 156.652 46.859C156.652 47.7484 156.652 48.7768 156.652 49.9439C156.652 50.0072 156.662 50.0688 156.684 50.1285C156.708 50.1883 156.721 50.2516 156.721 50.3184C156.721 50.3676 156.712 50.4238 156.694 50.4871C156.677 50.5539 156.643 50.6154 156.594 50.6717C156.548 50.7279 156.485 50.7754 156.404 50.8141C156.327 50.8527 156.228 50.8721 156.109 50.8721C155.919 50.8721 155.766 50.8246 155.65 50.7297C155.537 50.6383 155.481 50.5135 155.481 50.3553ZM163.581 48.4832C163.574 48.3426 163.576 48.2002 163.587 48.0561C163.597 47.9119 163.604 47.7607 163.608 47.6025L163.486 41.5328C163.486 41.2973 163.527 41.118 163.608 40.9949C163.692 40.8684 163.81 40.8051 163.961 40.8051C164.098 40.8051 164.205 40.8086 164.283 40.8156C164.36 40.8227 164.429 40.8297 164.488 40.8367C164.523 40.8437 164.559 40.8473 164.594 40.8473C164.629 40.8473 164.666 40.8473 164.704 40.8473H167.615C167.911 40.8473 168.118 40.8877 168.238 40.9686C168.361 41.0494 168.422 41.1795 168.422 41.3588C168.422 41.4818 168.405 41.582 168.37 41.6594C168.338 41.7367 168.289 41.7982 168.222 41.8439C168.155 41.8896 168.071 41.9213 167.969 41.9389C167.87 41.9529 167.754 41.96 167.621 41.96L164.715 41.9547L164.747 43.9586C165.137 43.9586 165.485 43.9586 165.791 43.9586C166.1 43.9551 166.374 43.9516 166.613 43.948C166.856 43.9445 167.067 43.941 167.246 43.9375C167.429 43.9305 167.589 43.9252 167.726 43.9217C167.761 43.9217 167.795 43.9217 167.826 43.9217C167.858 43.9182 167.888 43.9164 167.916 43.9164C167.976 43.9129 168.036 43.9111 168.095 43.9111C168.159 43.9111 168.21 43.9111 168.248 43.9111C168.343 43.9111 168.428 43.9305 168.501 43.9691C168.575 44.0043 168.637 44.0518 168.686 44.1115C168.739 44.1678 168.777 44.2311 168.802 44.3014C168.83 44.3682 168.844 44.4314 168.844 44.4912C168.844 44.6775 168.781 44.8164 168.654 44.9078C168.528 44.9957 168.368 45.0396 168.174 45.0396L164.747 45.0449V47.6975C164.747 47.7678 164.752 47.8381 164.762 47.9084C164.777 47.9752 164.791 48.0437 164.805 48.1141C164.822 48.1809 164.838 48.2494 164.852 48.3197C164.866 48.39 164.873 48.4621 164.873 48.5359C164.873 48.6273 164.863 48.7117 164.842 48.7891C164.821 48.8629 164.782 48.9279 164.726 48.9842C164.673 49.0369 164.601 49.0773 164.509 49.1055C164.418 49.1371 164.302 49.1529 164.161 49.1529C163.971 49.1529 163.827 49.1002 163.729 48.9947C163.63 48.8857 163.581 48.7152 163.581 48.4832ZM171.275 46.6217C171.342 46.8854 171.44 47.1068 171.571 47.2861C171.704 47.4619 171.854 47.6043 172.019 47.7133C172.184 47.8223 172.358 47.9014 172.541 47.9506C172.727 47.9963 172.908 48.0191 173.084 48.0191C173.358 48.0191 173.603 47.9963 173.817 47.9506C174.031 47.9014 174.214 47.8434 174.365 47.7766C174.52 47.7062 174.645 47.6342 174.74 47.5604C174.835 47.4865 174.902 47.4215 174.94 47.3652C174.975 47.3125 175.014 47.2633 175.056 47.2176C175.102 47.1684 175.149 47.1262 175.199 47.091C175.251 47.0523 175.302 47.0225 175.352 47.0014C175.404 46.9803 175.454 46.9697 175.499 46.9697C175.675 46.9697 175.81 47.0225 175.905 47.1279C176.004 47.2299 176.053 47.3687 176.053 47.5445C176.053 47.6113 176.028 47.6957 175.979 47.7977C175.93 47.8996 175.838 48.0121 175.705 48.1352C175.557 48.2723 175.392 48.4023 175.209 48.5254C175.03 48.6484 174.831 48.7574 174.613 48.8523C174.395 48.9437 174.158 49.0158 173.901 49.0686C173.648 49.1248 173.374 49.1529 173.079 49.1529C172.731 49.1529 172.413 49.1055 172.124 49.0105C171.836 48.9191 171.578 48.7943 171.349 48.6361C171.121 48.4744 170.922 48.2881 170.753 48.0771C170.584 47.8662 170.444 47.6412 170.331 47.4021C170.219 47.1631 170.134 46.917 170.078 46.6639C170.022 46.4107 169.994 46.1646 169.994 45.9256C169.994 45.4053 170.078 44.9359 170.247 44.5176C170.416 44.0957 170.648 43.7354 170.943 43.4365C171.238 43.1377 171.588 42.9074 171.992 42.7457C172.397 42.584 172.834 42.5031 173.305 42.5031C173.643 42.5031 173.959 42.5541 174.255 42.6561C174.55 42.7545 174.812 42.8951 175.04 43.0779C175.272 43.2572 175.466 43.4734 175.621 43.7266C175.779 43.9762 175.889 44.2521 175.953 44.5545C176.023 44.6143 176.074 44.6934 176.106 44.7918C176.141 44.8867 176.158 44.9816 176.158 45.0766C176.158 45.2348 176.104 45.3648 175.995 45.4668C175.889 45.5652 175.756 45.6338 175.594 45.6725C175.239 45.7639 174.884 45.8482 174.529 45.9256C174.174 46.0029 173.817 46.0785 173.458 46.1523C173.1 46.2262 172.738 46.3018 172.372 46.3791C172.01 46.4564 171.644 46.5373 171.275 46.6217ZM171.186 45.6461C171.783 45.5055 172.388 45.3736 173 45.2506C173.611 45.1275 174.234 44.9904 174.866 44.8393C174.807 44.6775 174.726 44.5246 174.624 44.3805C174.522 44.2328 174.402 44.1045 174.265 43.9955C174.128 43.8865 173.975 43.8004 173.806 43.7371C173.641 43.6738 173.462 43.6422 173.269 43.6422C172.97 43.6422 172.697 43.6914 172.451 43.7898C172.209 43.8848 171.998 44.0201 171.818 44.1959C171.639 44.3682 171.495 44.5791 171.386 44.8287C171.277 45.0748 171.21 45.3473 171.186 45.6461ZM178.669 46.6217C178.735 46.8854 178.834 47.1068 178.964 47.2861C179.097 47.4619 179.247 47.6043 179.412 47.7133C179.577 47.8223 179.751 47.9014 179.934 47.9506C180.121 47.9963 180.302 48.0191 180.477 48.0191C180.752 48.0191 180.996 47.9963 181.21 47.9506C181.425 47.9014 181.608 47.8434 181.759 47.7766C181.913 47.7062 182.038 47.6342 182.133 47.5604C182.228 47.4865 182.295 47.4215 182.334 47.3652C182.369 47.3125 182.407 47.2633 182.45 47.2176C182.495 47.1684 182.543 47.1262 182.592 47.091C182.645 47.0523 182.696 47.0225 182.745 47.0014C182.798 46.9803 182.847 46.9697 182.893 46.9697C183.068 46.9697 183.204 47.0225 183.299 47.1279C183.397 47.2299 183.446 47.3687 183.446 47.5445C183.446 47.6113 183.422 47.6957 183.372 47.7977C183.323 47.8996 183.232 48.0121 183.098 48.1352C182.951 48.2723 182.785 48.4023 182.603 48.5254C182.423 48.6484 182.225 48.7574 182.007 48.8523C181.789 48.9437 181.551 49.0158 181.295 49.0686C181.042 49.1248 180.767 49.1529 180.472 49.1529C180.124 49.1529 179.806 49.1055 179.518 49.0105C179.229 48.9191 178.971 48.7943 178.742 48.6361C178.514 48.4744 178.315 48.2881 178.146 48.0771C177.978 47.8662 177.837 47.6412 177.725 47.4021C177.612 47.1631 177.528 46.917 177.471 46.6639C177.415 46.4107 177.387 46.1646 177.387 45.9256C177.387 45.4053 177.471 44.9359 177.64 44.5176C177.809 44.0957 178.041 43.7354 178.336 43.4365C178.632 43.1377 178.981 42.9074 179.386 42.7457C179.79 42.584 180.228 42.5031 180.699 42.5031C181.036 42.5031 181.353 42.5541 181.648 42.6561C181.943 42.7545 182.205 42.8951 182.434 43.0779C182.666 43.2572 182.859 43.4734 183.014 43.7266C183.172 43.9762 183.283 44.2521 183.346 44.5545C183.416 44.6143 183.467 44.6934 183.499 44.7918C183.534 44.8867 183.552 44.9816 183.552 45.0766C183.552 45.2348 183.497 45.3648 183.388 45.4668C183.283 45.5652 183.149 45.6338 182.987 45.6725C182.632 45.7639 182.277 45.8482 181.922 45.9256C181.567 46.0029 181.21 46.0785 180.852 46.1523C180.493 46.2262 180.131 46.3018 179.765 46.3791C179.403 46.4564 179.038 46.5373 178.669 46.6217ZM178.579 45.6461C179.177 45.5055 179.781 45.3736 180.393 45.2506C181.005 45.1275 181.627 44.9904 182.26 44.8393C182.2 44.6775 182.119 44.5246 182.017 44.3805C181.915 44.2328 181.796 44.1045 181.659 43.9955C181.521 43.8865 181.369 43.8004 181.2 43.7371C181.035 43.6738 180.855 43.6422 180.662 43.6422C180.363 43.6422 180.091 43.6914 179.845 43.7898C179.602 43.8848 179.391 44.0201 179.212 44.1959C179.032 44.3682 178.888 44.5791 178.779 44.8287C178.67 45.0748 178.604 45.3473 178.579 45.6461ZM185.519 48.4568C185.519 48.2389 185.524 48.0086 185.535 47.766C185.542 47.6395 185.547 47.4971 185.55 47.3389C185.554 47.1771 185.556 47.0172 185.556 46.859C185.556 46.7535 185.554 46.5865 185.55 46.358C185.55 46.126 185.549 45.8518 185.545 45.5354C185.545 45.2189 185.542 44.8674 185.535 44.4807C185.531 44.0939 185.526 43.6914 185.519 43.273C185.515 42.8512 185.51 42.4223 185.503 41.9863C185.499 41.5504 185.494 41.1232 185.487 40.7049C185.35 40.7084 185.211 40.7172 185.071 40.7312C184.93 40.7418 184.786 40.7471 184.638 40.7471C184.575 40.7471 184.51 40.7365 184.443 40.7154C184.38 40.6943 184.322 40.6627 184.269 40.6205C184.216 40.5748 184.172 40.515 184.137 40.4412C184.102 40.3674 184.084 40.2777 184.084 40.1723C184.084 39.9859 184.134 39.8453 184.232 39.7504C184.334 39.652 184.452 39.6027 184.585 39.6027C184.708 39.6027 184.83 39.6098 184.949 39.6238C185.069 39.6379 185.195 39.6449 185.329 39.6449C185.427 39.6449 185.513 39.6432 185.587 39.6396C185.661 39.6361 185.731 39.6326 185.798 39.6291C185.869 39.6221 185.942 39.6168 186.02 39.6133C186.097 39.6062 186.19 39.6027 186.299 39.6027C186.447 39.6027 186.566 39.6502 186.658 39.7451C186.753 39.8365 186.8 39.9789 186.8 40.1723C186.8 40.2426 186.793 40.3111 186.779 40.3779C186.769 40.4447 186.754 40.5115 186.737 40.5783C186.723 40.6451 186.709 40.7137 186.695 40.784C186.684 40.8508 186.677 40.9193 186.674 40.9896V47.9031C186.818 47.8609 186.932 47.8293 187.016 47.8082C187.104 47.7871 187.18 47.7766 187.243 47.7766C187.612 47.7766 187.797 47.9699 187.797 48.3566C187.797 48.5148 187.742 48.6379 187.633 48.7258C187.528 48.8102 187.375 48.877 187.175 48.9262L186.647 49.0633C186.528 49.102 186.435 49.1266 186.368 49.1371C186.301 49.1477 186.229 49.1529 186.152 49.1529C186.039 49.1529 185.942 49.1318 185.862 49.0896C185.784 49.0475 185.719 48.993 185.666 48.9262C185.617 48.8559 185.58 48.7803 185.556 48.6994C185.531 48.6186 185.519 48.5377 185.519 48.4568ZM190.887 41.7332C190.803 41.7719 190.715 41.7912 190.623 41.7912C190.532 41.7877 190.448 41.7684 190.37 41.7332C190.296 41.6945 190.231 41.64 190.175 41.5697C190.119 41.4994 190.084 41.415 190.07 41.3166C190.059 41.2498 190.061 41.1742 190.075 41.0898C190.093 41.002 190.114 40.9141 190.138 40.8262C190.166 40.7348 190.191 40.6469 190.212 40.5625C190.237 40.4746 190.253 40.3955 190.26 40.3252C190.27 40.167 190.318 40.0352 190.402 39.9297C190.486 39.8242 190.613 39.7592 190.782 39.7346C190.905 39.7135 191.021 39.7205 191.13 39.7557C191.239 39.7908 191.32 39.8682 191.372 39.9877C191.39 40.0264 191.404 40.0721 191.414 40.1248C191.429 40.174 191.439 40.218 191.446 40.2566C191.45 40.2918 191.448 40.3357 191.441 40.3885C191.437 40.4412 191.429 40.4975 191.414 40.5572C191.4 40.6135 191.383 40.6715 191.362 40.7312C191.344 40.7875 191.327 40.8367 191.309 40.8789C191.281 40.9387 191.262 41.0037 191.251 41.074C191.244 41.1408 191.235 41.2023 191.225 41.2586C191.214 41.3148 191.204 41.3658 191.193 41.4115C191.182 41.4572 191.165 41.4994 191.14 41.5381C191.119 41.5768 191.088 41.6119 191.045 41.6436C191.007 41.6752 190.954 41.7051 190.887 41.7332ZM189.985 48.6045C189.985 48.5166 189.989 48.4428 189.996 48.383C190.006 48.3232 190.015 48.2582 190.022 48.1879C190.033 48.1141 190.042 48.0279 190.049 47.9295C190.059 47.8311 190.064 47.6975 190.064 47.5287C190.064 46.8994 190.063 46.2754 190.059 45.6566C190.056 45.0344 190.047 44.377 190.033 43.6844C189.98 43.6879 189.92 43.6914 189.854 43.6949C189.787 43.6984 189.716 43.702 189.643 43.7055C189.572 43.7055 189.504 43.7072 189.437 43.7107C189.37 43.7107 189.31 43.7107 189.258 43.7107C189.194 43.7107 189.129 43.702 189.063 43.6844C188.999 43.6633 188.941 43.6299 188.888 43.5842C188.836 43.5385 188.792 43.4805 188.757 43.4102C188.721 43.3363 188.704 43.2467 188.704 43.1412C188.704 42.9549 188.753 42.8143 188.852 42.7193C188.954 42.6209 189.073 42.5717 189.21 42.5717C189.344 42.5717 189.476 42.5787 189.606 42.5928C189.739 42.6033 189.869 42.6086 189.996 42.6086C190.126 42.6086 190.256 42.6033 190.386 42.5928C190.516 42.5787 190.639 42.5717 190.755 42.5717C190.935 42.5717 191.063 42.6191 191.14 42.7141C191.218 42.809 191.256 42.9408 191.256 43.1096C191.256 43.2537 191.244 43.3961 191.219 43.5367C191.195 43.6738 191.182 43.8215 191.182 43.9797C191.182 44.2961 191.181 44.6143 191.177 44.9342C191.174 45.2541 191.17 45.5793 191.167 45.9098C191.167 46.2402 191.165 46.5777 191.161 46.9223C191.161 47.2668 191.165 47.6219 191.172 47.9875C191.228 47.984 191.279 47.9752 191.325 47.9611C191.371 47.9471 191.414 47.933 191.457 47.9189C191.499 47.9014 191.543 47.8873 191.588 47.8768C191.638 47.8627 191.692 47.8557 191.752 47.8557C191.843 47.8557 191.917 47.8662 191.973 47.8873C192.033 47.9084 192.081 47.9383 192.116 47.977C192.151 48.0121 192.177 48.0578 192.195 48.1141C192.213 48.1668 192.228 48.2248 192.242 48.2881C192.267 48.4533 192.227 48.5852 192.121 48.6836C192.016 48.782 191.871 48.8594 191.689 48.9156C191.583 48.9437 191.474 48.9719 191.362 49C191.253 49.0281 191.149 49.0527 191.051 49.0738C190.952 49.0984 190.863 49.1178 190.782 49.1318C190.701 49.1459 190.638 49.1529 190.592 49.1529C190.384 49.1529 190.231 49.1037 190.133 49.0053C190.035 48.9104 189.985 48.7768 189.985 48.6045ZM194.236 48.6098C194.236 48.5465 194.238 48.4814 194.241 48.4146C194.248 48.3479 194.255 48.2828 194.262 48.2195C194.273 48.1246 194.283 48.0209 194.294 47.9084C194.304 47.7959 194.31 47.6693 194.31 47.5287C194.31 47.2545 194.308 46.9961 194.304 46.7535C194.304 46.5074 194.301 46.2543 194.294 45.9941C194.294 45.9871 194.294 45.9766 194.294 45.9625C194.294 45.9449 194.292 45.9115 194.288 45.8623C194.288 45.8131 194.287 45.741 194.283 45.6461C194.283 45.5512 194.281 45.4176 194.278 45.2453C194.274 45.073 194.269 44.8586 194.262 44.602C194.259 44.3418 194.253 44.0254 194.246 43.6527C194.201 43.6598 194.146 43.6668 194.083 43.6738C194.023 43.6773 193.951 43.6791 193.867 43.6791C193.803 43.6791 193.738 43.6686 193.671 43.6475C193.608 43.6264 193.548 43.5947 193.492 43.5525C193.439 43.5068 193.396 43.4488 193.36 43.3785C193.329 43.3047 193.313 43.215 193.313 43.1096C193.313 42.9197 193.36 42.7773 193.455 42.6824C193.554 42.584 193.673 42.5348 193.814 42.5348C193.87 42.5348 193.925 42.5418 193.977 42.5559C194.03 42.5699 194.086 42.577 194.146 42.577C194.216 42.577 194.288 42.5752 194.362 42.5717C194.436 42.5682 194.508 42.5629 194.579 42.5559C194.656 42.5488 194.731 42.5436 194.805 42.54C194.883 42.5365 194.951 42.5348 195.011 42.5348C195.155 42.5348 195.275 42.5822 195.37 42.6771C195.464 42.7721 195.512 42.9057 195.512 43.0779C195.512 43.1201 195.51 43.1693 195.507 43.2256C195.507 43.2818 195.503 43.3363 195.496 43.3891C195.616 43.273 195.751 43.1623 195.902 43.0568C196.053 42.9514 196.217 42.8582 196.393 42.7773C196.572 42.693 196.763 42.6262 196.967 42.577C197.171 42.5277 197.388 42.5031 197.616 42.5031C198.063 42.5031 198.453 42.577 198.787 42.7246C199.124 42.8687 199.405 43.0797 199.63 43.3574C199.859 43.6316 200.029 43.9691 200.142 44.3699C200.258 44.7707 200.316 45.226 200.316 45.7357C200.316 45.8904 200.305 46.0521 200.284 46.2209C200.263 46.3896 200.233 46.5584 200.195 46.7271C200.16 46.8959 200.116 47.0646 200.063 47.2334C200.014 47.3986 199.957 47.5551 199.894 47.7027C199.975 47.6781 200.052 47.657 200.126 47.6395C200.2 47.6219 200.262 47.6096 200.311 47.6025C200.704 47.5639 200.901 47.7432 200.901 48.1404C200.901 48.1896 200.896 48.2441 200.886 48.3039C200.875 48.3602 200.854 48.4164 200.822 48.4727C200.791 48.5254 200.747 48.5764 200.69 48.6256C200.634 48.6713 200.562 48.71 200.474 48.7416L199.905 48.8734C199.729 48.9262 199.587 48.9701 199.478 49.0053C199.372 49.0439 199.282 49.0738 199.209 49.0949C199.138 49.1195 199.079 49.1354 199.029 49.1424C198.98 49.1529 198.926 49.1564 198.866 49.1529C198.781 49.1529 198.708 49.1318 198.644 49.0896C198.581 49.051 198.528 49.0018 198.486 48.942C198.444 48.8787 198.412 48.8102 198.391 48.7363C198.37 48.6625 198.36 48.5904 198.36 48.5201C198.36 48.4076 198.375 48.2934 198.407 48.1773C198.439 48.0613 198.495 47.9559 198.576 47.8609C198.674 47.7344 198.757 47.592 198.824 47.4338C198.894 47.2756 198.95 47.1051 198.992 46.9223C199.035 46.7395 199.064 46.5479 199.082 46.3475C199.103 46.1471 199.114 45.9432 199.114 45.7357C199.114 45.4967 199.087 45.2541 199.035 45.008C198.985 44.7584 198.899 44.5334 198.776 44.333C198.657 44.1291 198.497 43.9639 198.296 43.8373C198.099 43.7072 197.852 43.6422 197.553 43.6422C197.345 43.6422 197.141 43.6756 196.941 43.7424C196.744 43.8057 196.554 43.8918 196.371 44.0008C196.192 44.1062 196.023 44.2275 195.865 44.3646C195.707 44.5018 195.568 44.6424 195.449 44.7865C195.445 44.9447 195.442 45.1047 195.438 45.2664C195.438 45.4246 195.438 45.5846 195.438 45.7463C195.431 46.0205 195.426 46.293 195.422 46.5637C195.419 46.8344 195.417 47.1086 195.417 47.3863C195.417 47.4672 195.417 47.5498 195.417 47.6342C195.417 47.715 195.421 47.8012 195.428 47.8926L195.57 47.8504C195.609 47.8398 195.646 47.8311 195.681 47.824C195.719 47.8135 195.753 47.8082 195.781 47.8082C195.971 47.8082 196.115 47.8557 196.213 47.9506C196.312 48.042 196.361 48.1773 196.361 48.3566C196.361 48.4902 196.335 48.5975 196.282 48.6783C196.229 48.7557 196.162 48.8172 196.081 48.8629C196.001 48.9051 195.911 48.935 195.813 48.9525C195.718 48.9701 195.624 48.9842 195.533 48.9947C195.484 49.0018 195.436 49.007 195.391 49.0105C195.345 49.0176 195.306 49.0264 195.275 49.0369C195.162 49.0686 195.065 49.0949 194.985 49.116C194.904 49.1406 194.833 49.1529 194.774 49.1529C194.566 49.1529 194.424 49.1055 194.346 49.0105C194.273 48.9156 194.236 48.782 194.236 48.6098ZM202.573 50.3447C202.573 50.2639 202.585 50.183 202.61 50.1021C202.638 50.0213 202.675 49.9492 202.721 49.8859C202.77 49.8227 202.828 49.7699 202.895 49.7277C202.965 49.6891 203.041 49.6697 203.121 49.6697C203.181 49.6697 203.253 49.682 203.338 49.7066C203.426 49.7313 203.498 49.7664 203.554 49.8121C203.642 49.893 203.735 49.9738 203.833 50.0547C203.935 50.1355 204.05 50.2076 204.176 50.2709C204.303 50.3342 204.445 50.3852 204.603 50.4238C204.765 50.466 204.953 50.4871 205.168 50.4871C205.379 50.4871 205.596 50.4484 205.821 50.3711C206.05 50.2938 206.257 50.1795 206.444 50.0283C206.634 49.8771 206.788 49.6891 206.908 49.4641C207.031 49.2391 207.092 48.9789 207.092 48.6836C207.092 48.6344 207.091 48.5816 207.087 48.5254C207.084 48.4656 207.082 48.4076 207.082 48.3514C206.99 48.4639 206.883 48.5693 206.76 48.6678C206.637 48.7662 206.493 48.8523 206.328 48.9262C206.163 48.9965 205.971 49.051 205.753 49.0896C205.538 49.1318 205.292 49.1529 205.015 49.1529C204.561 49.1529 204.145 49.0703 203.765 48.9051C203.385 48.7363 203.058 48.5043 202.784 48.209C202.51 47.9102 202.295 47.5586 202.141 47.1543C201.986 46.75 201.907 46.3105 201.903 45.8359C201.896 45.3297 201.972 44.8727 202.13 44.4648C202.292 44.0535 202.515 43.7037 202.8 43.4154C203.085 43.1236 203.42 42.8986 203.807 42.7404C204.194 42.5822 204.614 42.5031 205.067 42.5031C205.549 42.5031 205.966 42.5734 206.317 42.7141C206.669 42.8547 206.968 43.0604 207.214 43.3311C207.231 43.2748 207.254 43.2203 207.282 43.1676C207.31 43.1113 207.346 43.0621 207.388 43.0199C207.433 42.9777 207.484 42.9443 207.541 42.9197C207.6 42.8916 207.671 42.8775 207.752 42.8775C207.871 42.8775 207.968 42.8934 208.042 42.925C208.119 42.9531 208.179 42.9936 208.221 43.0463C208.263 43.099 208.291 43.1623 208.305 43.2361C208.323 43.3064 208.332 43.3838 208.332 43.4682C208.332 43.5455 208.325 43.6229 208.311 43.7002C208.296 43.774 208.289 43.8549 208.289 43.9428C208.289 44.34 208.288 44.7197 208.284 45.0818C208.284 45.4404 208.281 45.7973 208.274 46.1523C208.267 46.5039 208.261 46.8766 208.258 47.2703C208.254 47.6641 208.253 48.0596 208.253 48.4568C208.253 48.9174 208.202 49.3129 208.1 49.6434C207.998 49.9773 207.862 50.2604 207.694 50.4924C207.528 50.7279 207.337 50.9178 207.119 51.0619C206.904 51.2061 206.681 51.3186 206.449 51.3994C206.221 51.4803 205.992 51.5348 205.763 51.5629C205.535 51.591 205.326 51.6051 205.136 51.6051C204.96 51.6051 204.776 51.5893 204.582 51.5576C204.389 51.5295 204.197 51.4873 204.007 51.4311C203.818 51.3748 203.635 51.308 203.459 51.2307C203.287 51.1533 203.134 51.0672 203 50.9723C202.87 50.8809 202.766 50.7807 202.689 50.6717C202.612 50.5662 202.573 50.4572 202.573 50.3447ZM203.079 45.8359C203.079 46.1488 203.125 46.4389 203.216 46.7061C203.311 46.9732 203.443 47.2053 203.612 47.4021C203.784 47.5955 203.992 47.7467 204.234 47.8557C204.477 47.9646 204.749 48.0191 205.052 48.0191C205.393 48.0191 205.693 47.9646 205.953 47.8557C206.213 47.7467 206.431 47.5955 206.607 47.4021C206.783 47.2053 206.917 46.9732 207.008 46.7061C207.099 46.4389 207.145 46.1488 207.145 45.8359C207.145 45.5301 207.106 45.24 207.029 44.9658C206.952 44.6881 206.83 44.4473 206.665 44.2434C206.504 44.0359 206.294 43.8725 206.038 43.7529C205.785 43.6299 205.482 43.5684 205.131 43.5684C204.818 43.5684 204.535 43.6281 204.282 43.7477C204.032 43.8637 203.818 44.0236 203.638 44.2275C203.459 44.4314 203.32 44.6723 203.222 44.95C203.127 45.2242 203.079 45.5195 203.079 45.8359ZM214.09 45.0133C214.09 44.2926 214.194 43.6633 214.401 43.1254C214.609 42.5875 214.895 42.1393 215.261 41.7807C215.627 41.4221 216.059 41.1531 216.558 40.9738C217.057 40.7945 217.601 40.7049 218.188 40.7049C218.339 40.7049 218.509 40.7084 218.699 40.7154C218.889 40.7189 219.082 40.7312 219.279 40.7523C219.48 40.7734 219.677 40.8033 219.87 40.842C220.063 40.8807 220.243 40.9316 220.408 40.9949C220.538 41.0441 220.647 41.1145 220.735 41.2059C220.823 41.2973 220.867 41.4291 220.867 41.6014C220.867 41.8018 220.816 41.9635 220.714 42.0865C220.615 42.2061 220.499 42.2658 220.366 42.2658C220.338 42.2658 220.301 42.2623 220.255 42.2553C220.209 42.2482 220.171 42.2359 220.139 42.2184C220.002 42.1445 219.835 42.0848 219.638 42.0391C219.445 41.9934 219.244 41.9564 219.037 41.9283C218.829 41.9002 218.627 41.8809 218.43 41.8703C218.233 41.8598 218.065 41.8545 217.924 41.8545C217.731 41.8545 217.532 41.8791 217.328 41.9283C217.124 41.974 216.924 42.0479 216.727 42.1498C216.534 42.2518 216.349 42.3818 216.173 42.54C216.001 42.6982 215.85 42.8863 215.72 43.1043C215.59 43.3223 215.486 43.5736 215.409 43.8584C215.331 44.1396 215.293 44.4561 215.293 44.8076C215.293 45.2189 215.34 45.5828 215.435 45.8992C215.533 46.2156 215.667 46.4916 215.836 46.7271C216.004 46.9592 216.203 47.1561 216.432 47.3178C216.66 47.476 216.906 47.6043 217.17 47.7027C217.437 47.8012 217.715 47.8715 218.003 47.9137C218.291 47.9559 218.58 47.977 218.868 47.977C218.995 47.977 219.137 47.9752 219.295 47.9717C219.457 47.9646 219.617 47.9471 219.775 47.9189C219.775 47.5744 219.773 47.2809 219.77 47.0383C219.77 46.7957 219.768 46.5795 219.764 46.3896C219.761 46.1998 219.756 46.0258 219.749 45.8676C219.745 45.7094 219.74 45.5406 219.733 45.3613C219.733 45.2348 219.724 45.1082 219.706 44.9816C219.689 44.8516 219.68 44.7127 219.68 44.565C219.68 44.5123 219.691 44.4561 219.712 44.3963C219.736 44.333 219.773 44.275 219.822 44.2223C219.875 44.166 219.944 44.1203 220.028 44.0852C220.113 44.0465 220.218 44.0271 220.345 44.0271C220.552 44.0271 220.712 44.0764 220.824 44.1748C220.94 44.2697 220.998 44.3998 220.998 44.565C220.998 44.6354 220.997 44.7039 220.993 44.7707C220.99 44.834 220.988 44.9025 220.988 44.9764C220.984 45.0889 220.979 45.226 220.972 45.3877C220.969 45.5459 220.965 45.7498 220.962 45.9994C220.958 46.2455 220.954 46.5461 220.951 46.9012C220.947 47.2527 220.946 47.6746 220.946 48.1668C220.942 48.3672 220.916 48.5236 220.867 48.6361C220.817 48.7486 220.751 48.833 220.666 48.8893C220.582 48.942 220.483 48.9736 220.371 48.9842C220.262 48.9947 220.148 49 220.028 49C219.926 49 219.819 49.0053 219.706 49.0158C219.594 49.0264 219.48 49.0387 219.364 49.0527C219.248 49.0668 219.133 49.0791 219.021 49.0896C218.912 49.1002 218.808 49.1055 218.71 49.1055C217.961 49.1055 217.298 48.9947 216.722 48.7732C216.149 48.5518 215.667 48.2547 215.277 47.882C214.887 47.5059 214.591 47.0717 214.391 46.5795C214.19 46.0838 214.09 45.5617 214.09 45.0133ZM223.308 48.5307C223.308 48.4076 223.31 48.2846 223.313 48.1615C223.317 48.0385 223.321 47.9031 223.324 47.7555V43.6896C223.324 43.5912 223.313 43.4928 223.292 43.3943C223.271 43.2924 223.261 43.1869 223.261 43.0779C223.261 42.8916 223.328 42.7492 223.461 42.6508C223.595 42.5523 223.776 42.5031 224.004 42.5031C224.103 42.5031 224.189 42.5207 224.263 42.5559C224.337 42.5875 224.398 42.6297 224.447 42.6824C224.496 42.7352 224.533 42.7949 224.558 42.8617C224.583 42.9285 224.595 42.9971 224.595 43.0674C224.595 43.1271 224.59 43.1887 224.579 43.252C224.572 43.3117 224.563 43.3715 224.553 43.4312C225.091 43.2977 225.548 43.1764 225.924 43.0674C226.304 42.9584 226.601 42.8687 226.815 42.7984C226.861 42.7176 226.924 42.649 227.005 42.5928C227.089 42.533 227.198 42.5031 227.332 42.5031C227.525 42.5031 227.678 42.5541 227.791 42.6561C227.907 42.7545 227.965 42.8793 227.965 43.0305C227.965 43.0902 227.961 43.1518 227.954 43.215C227.947 43.2783 227.944 43.3416 227.944 43.4049C227.922 43.6193 227.917 43.8373 227.928 44.0588C227.942 44.2803 227.958 44.5035 227.975 44.7285C227.982 44.7988 227.986 44.8744 227.986 44.9553C227.989 45.0326 227.991 45.1117 227.991 45.1926C227.991 45.277 227.97 45.3473 227.928 45.4035C227.886 45.4598 227.831 45.5055 227.764 45.5406C227.701 45.5723 227.631 45.5951 227.553 45.6092C227.476 45.6232 227.4 45.6303 227.327 45.6303C227.221 45.6303 227.133 45.6127 227.063 45.5775C226.993 45.5389 226.935 45.4914 226.889 45.4352C226.847 45.3754 226.815 45.3104 226.794 45.24C226.776 45.1662 226.768 45.0941 226.768 45.0238C226.768 44.8621 226.769 44.6986 226.773 44.5334C226.776 44.3646 226.78 44.1801 226.783 43.9797C226.65 44.0113 226.465 44.0535 226.23 44.1062C225.998 44.159 225.743 44.2152 225.465 44.275C225.307 44.3137 225.15 44.3506 224.996 44.3857C224.841 44.4174 224.685 44.4508 224.526 44.4859V47.9295L224.685 47.882C224.755 47.8574 224.822 47.8363 224.885 47.8187C224.948 47.7977 225.02 47.7836 225.101 47.7766C225.168 47.7836 225.233 47.7994 225.296 47.824C225.363 47.8486 225.421 47.8838 225.47 47.9295C225.523 47.9752 225.565 48.0332 225.597 48.1035C225.629 48.1703 225.644 48.2477 225.644 48.3355C225.644 48.4164 225.63 48.4937 225.602 48.5676C225.578 48.6414 225.542 48.7082 225.497 48.768C225.451 48.8242 225.396 48.8717 225.333 48.9104C225.273 48.9455 225.207 48.9648 225.133 48.9684C225.084 48.9754 225.017 48.9859 224.932 49C224.848 49.0176 224.75 49.0369 224.637 49.058C224.458 49.0932 224.312 49.1178 224.199 49.1318C224.09 49.1459 223.999 49.1529 223.925 49.1529C223.844 49.1529 223.765 49.1389 223.688 49.1107C223.614 49.0861 223.549 49.0475 223.493 48.9947C223.437 48.942 223.391 48.877 223.356 48.7996C223.324 48.7223 223.308 48.6326 223.308 48.5307ZM230.665 46.6217C230.731 46.8854 230.83 47.1068 230.96 47.2861C231.094 47.4619 231.243 47.6043 231.408 47.7133C231.573 47.8223 231.747 47.9014 231.93 47.9506C232.117 47.9963 232.298 48.0191 232.473 48.0191C232.748 48.0191 232.992 47.9963 233.206 47.9506C233.421 47.9014 233.604 47.8434 233.755 47.7766C233.91 47.7062 234.034 47.6342 234.129 47.5604C234.224 47.4865 234.291 47.4215 234.33 47.3652C234.365 47.3125 234.404 47.2633 234.446 47.2176C234.491 47.1684 234.539 47.1262 234.588 47.091C234.641 47.0523 234.692 47.0225 234.741 47.0014C234.794 46.9803 234.843 46.9697 234.889 46.9697C235.064 46.9697 235.2 47.0225 235.295 47.1279C235.393 47.2299 235.442 47.3687 235.442 47.5445C235.442 47.6113 235.418 47.6957 235.369 47.7977C235.319 47.8996 235.228 48.0121 235.094 48.1352C234.947 48.2723 234.781 48.4023 234.599 48.5254C234.419 48.6484 234.221 48.7574 234.003 48.8523C233.785 48.9437 233.547 49.0158 233.291 49.0686C233.038 49.1248 232.763 49.1529 232.468 49.1529C232.12 49.1529 231.802 49.1055 231.514 49.0105C231.225 48.9191 230.967 48.7943 230.738 48.6361C230.51 48.4744 230.311 48.2881 230.143 48.0771C229.974 47.8662 229.833 47.6412 229.721 47.4021C229.608 47.1631 229.524 46.917 229.468 46.6639C229.411 46.4107 229.383 46.1646 229.383 45.9256C229.383 45.4053 229.468 44.9359 229.636 44.5176C229.805 44.0957 230.037 43.7354 230.332 43.4365C230.628 43.1377 230.978 42.9074 231.382 42.7457C231.786 42.584 232.224 42.5031 232.695 42.5031C233.032 42.5031 233.349 42.5541 233.644 42.6561C233.939 42.7545 234.201 42.8951 234.43 43.0779C234.662 43.2572 234.855 43.4734 235.01 43.7266C235.168 43.9762 235.279 44.2521 235.342 44.5545C235.412 44.6143 235.463 44.6934 235.495 44.7918C235.53 44.8867 235.548 44.9816 235.548 45.0766C235.548 45.2348 235.493 45.3648 235.384 45.4668C235.279 45.5652 235.145 45.6338 234.984 45.6725C234.629 45.7639 234.273 45.8482 233.918 45.9256C233.563 46.0029 233.206 46.0785 232.848 46.1523C232.489 46.2262 232.127 46.3018 231.762 46.3791C231.399 46.4564 231.034 46.5373 230.665 46.6217ZM230.575 45.6461C231.173 45.5055 231.777 45.3736 232.389 45.2506C233.001 45.1275 233.623 44.9904 234.256 44.8393C234.196 44.6775 234.115 44.5246 234.013 44.3805C233.911 44.2328 233.792 44.1045 233.655 43.9955C233.518 43.8865 233.365 43.8004 233.196 43.7371C233.031 43.6738 232.851 43.6422 232.658 43.6422C232.359 43.6422 232.087 43.6914 231.841 43.7898C231.598 43.8848 231.387 44.0201 231.208 44.1959C231.029 44.3682 230.884 44.5791 230.775 44.8287C230.666 45.0748 230.6 45.3473 230.575 45.6461ZM236.777 45.8359C236.777 45.3578 236.857 44.9131 237.019 44.5018C237.181 44.0904 237.402 43.7336 237.684 43.4312C237.968 43.1289 238.301 42.8916 238.68 42.7193C239.063 42.5471 239.477 42.4609 239.92 42.4609C240.145 42.4609 240.359 42.4873 240.563 42.54C240.77 42.5928 240.962 42.6631 241.138 42.751C241.317 42.8354 241.477 42.932 241.618 43.041C241.762 43.15 241.885 43.2625 241.987 43.3785C241.983 43.3293 241.981 43.2766 241.981 43.2203C241.981 43.1641 241.981 43.1148 241.981 43.0727C241.981 42.9848 241.994 42.9039 242.018 42.8301C242.043 42.7527 242.082 42.6859 242.134 42.6297C242.187 42.5734 242.254 42.5295 242.335 42.4979C242.416 42.4627 242.514 42.4451 242.63 42.4451C242.729 42.4451 242.816 42.4645 242.894 42.5031C242.975 42.5383 243.043 42.584 243.099 42.6402C243.156 42.693 243.2 42.751 243.231 42.8143C243.263 42.874 243.279 42.9285 243.279 42.9777C243.279 43.0973 243.272 43.2186 243.258 43.3416C243.247 43.4611 243.238 43.5824 243.231 43.7055C243.231 44.0922 243.228 44.435 243.221 44.7338C243.217 45.0291 243.212 45.3016 243.205 45.5512C243.198 45.7199 243.193 45.8957 243.189 46.0785C243.186 46.2578 243.184 46.423 243.184 46.5742C243.184 46.9152 243.184 47.1859 243.184 47.3863C243.184 47.5867 243.193 47.7326 243.21 47.824C243.242 47.817 243.287 47.8012 243.347 47.7766C243.411 47.752 243.469 47.7256 243.521 47.6975C243.571 47.6799 243.62 47.6623 243.669 47.6447C243.718 47.6271 243.78 47.6184 243.854 47.6184C243.938 47.6184 244.012 47.6377 244.075 47.6764C244.138 47.7115 244.191 47.759 244.233 47.8187C244.279 47.875 244.312 47.94 244.333 48.0139C244.354 48.0842 244.365 48.1527 244.365 48.2195C244.365 48.3145 244.342 48.4111 244.296 48.5096C244.251 48.6045 244.166 48.673 244.043 48.7152C243.938 48.7539 243.831 48.7943 243.722 48.8365C243.613 48.8787 243.502 48.9174 243.389 48.9525C243.28 48.9877 243.17 49.0176 243.057 49.0422C242.948 49.0668 242.836 49.0791 242.72 49.0791C242.583 49.0791 242.47 49.051 242.382 48.9947C242.294 48.9385 242.226 48.8664 242.177 48.7785C242.127 48.6871 242.092 48.5869 242.071 48.4779C242.05 48.3689 242.038 48.2617 242.034 48.1562C241.925 48.2934 241.793 48.4217 241.639 48.5412C241.484 48.6607 241.313 48.7662 241.127 48.8576C240.941 48.949 240.74 49.0211 240.526 49.0738C240.315 49.1266 240.097 49.1529 239.872 49.1529C239.415 49.1529 238.997 49.0703 238.617 48.9051C238.237 48.7363 237.91 48.5043 237.636 48.209C237.365 47.9102 237.154 47.5586 237.003 47.1543C236.852 46.75 236.777 46.3105 236.777 45.8359ZM237.989 45.8359C237.989 46.1207 238.032 46.3949 238.116 46.6586C238.204 46.9223 238.329 47.1561 238.49 47.36C238.656 47.5604 238.858 47.7203 239.097 47.8398C239.336 47.9594 239.607 48.0191 239.909 48.0191C240.208 48.0191 240.479 47.9611 240.721 47.8451C240.964 47.7291 241.175 47.5779 241.354 47.3916C241.537 47.2053 241.686 46.9979 241.802 46.7693C241.918 46.5373 241.997 46.3053 242.039 46.0732V45.6092C242.001 45.3947 241.927 45.168 241.818 44.9289C241.712 44.6898 241.572 44.4701 241.396 44.2697C241.224 44.0658 241.016 43.8988 240.774 43.7687C240.531 43.6352 240.257 43.5684 239.951 43.5684C239.663 43.5684 239.399 43.6281 239.16 43.7477C238.921 43.8637 238.714 44.0254 238.538 44.2328C238.366 44.4367 238.23 44.6758 238.132 44.95C238.037 45.2242 237.989 45.5195 237.989 45.8359ZM246.084 47.4707L246.053 43.7529L245.414 43.7582C245.334 43.7582 245.263 43.7424 245.204 43.7107C245.144 43.6756 245.093 43.6299 245.051 43.5736C245.012 43.5139 244.982 43.4471 244.961 43.3732C244.94 43.2994 244.929 43.2221 244.929 43.1412C244.929 43.0041 244.945 42.9004 244.977 42.8301C245.012 42.7562 245.061 42.7035 245.124 42.6719C245.188 42.6367 245.265 42.6174 245.356 42.6139C245.448 42.6068 245.553 42.6033 245.673 42.6033H246.047V42.4082C246.047 42.2781 246.046 42.1727 246.042 42.0918C246.042 42.0109 246.042 41.9564 246.042 41.9283C246.042 41.8264 246.031 41.7244 246.01 41.6225C245.993 41.5205 245.984 41.4168 245.984 41.3113C245.984 41.2234 245.995 41.1461 246.016 41.0793C246.037 41.0125 246.072 40.9562 246.121 40.9105C246.174 40.8613 246.242 40.8244 246.327 40.7998C246.411 40.7752 246.515 40.7629 246.638 40.7629C246.722 40.7629 246.801 40.7699 246.875 40.784C246.953 40.798 247.019 40.8262 247.076 40.8684C247.135 40.907 247.183 40.9615 247.218 41.0318C247.253 41.1021 247.271 41.1936 247.271 41.3061C247.271 41.4572 247.257 41.6066 247.229 41.7543C247.204 41.902 247.193 42.0549 247.197 42.2131V42.598C247.471 42.591 247.684 42.5857 247.835 42.5822C247.99 42.5787 248.114 42.5752 248.209 42.5717C248.223 42.5717 248.236 42.5717 248.246 42.5717C248.26 42.5682 248.273 42.5664 248.283 42.5664C248.325 42.5629 248.373 42.5611 248.426 42.5611C248.478 42.5611 248.521 42.5611 248.552 42.5611C248.619 42.5611 248.684 42.5717 248.747 42.5928C248.811 42.6139 248.865 42.649 248.911 42.6982C248.96 42.7475 248.999 42.8107 249.027 42.8881C249.055 42.9654 249.069 43.0586 249.069 43.1676C249.069 43.252 249.062 43.3311 249.048 43.4049C249.034 43.4787 249.007 43.5437 248.969 43.6C248.93 43.6562 248.874 43.702 248.8 43.7371C248.726 43.7687 248.631 43.7846 248.515 43.7846C248.406 43.7846 248.296 43.7793 248.183 43.7687C248.074 43.7547 247.962 43.7459 247.846 43.7424L247.207 43.7477L247.244 47.9084C247.388 47.8838 247.515 47.8609 247.624 47.8398C247.733 47.8187 247.835 47.7977 247.93 47.7766C248.025 47.7555 248.118 47.7309 248.209 47.7027C248.301 47.6746 248.401 47.6395 248.51 47.5973C248.57 47.5656 248.64 47.534 248.721 47.5023C248.802 47.4672 248.886 47.4496 248.974 47.4496C249.146 47.4496 249.282 47.5094 249.38 47.6289C249.479 47.7449 249.528 47.8979 249.528 48.0877C249.528 48.1369 249.515 48.1914 249.491 48.2512C249.47 48.3109 249.436 48.3707 249.391 48.4305C249.345 48.4867 249.285 48.5395 249.211 48.5887C249.141 48.6344 249.057 48.6678 248.958 48.6889C248.853 48.71 248.731 48.7363 248.594 48.768C248.457 48.7996 248.313 48.833 248.162 48.8682C248.011 48.9033 247.86 48.9385 247.708 48.9736C247.557 49.0088 247.415 49.0387 247.281 49.0633C247.148 49.0914 247.03 49.1143 246.928 49.1318C246.826 49.1494 246.749 49.1564 246.696 49.1529C246.633 49.1529 246.562 49.1441 246.485 49.1266C246.411 49.1125 246.343 49.0844 246.279 49.0422C246.216 49.0035 246.163 48.949 246.121 48.8787C246.082 48.8049 246.063 48.7117 246.063 48.5992L246.084 47.4707Z" fill="#FDFDFD"/>
</svg>
