<svg
    width="929"
    height="571"
    viewBox="0 0 929 571"
    fill="none"
    xmlns="http://www.w3.org/2000/svg">
    <g clip-path="url(#clip0_921_952)">
    <path
        opacity="0.1"
        d="M929 366.74C929.016 382.21 927.144 397.625 923.424 412.643C922.172 417.703 920.718 422.657 919.062 427.507C917.035 433.493 914.687 439.366 912.026 445.099C910.686 447.999 909.268 450.842 907.775 453.627C907.8 469.491 904.531 485.189 898.176 499.727C886.688 525.81 866.204 546.901 840.456 559.154C824.357 566.829 806.764 570.866 788.927 570.977H176.356C149.101 571.034 122.317 563.88 98.7274 550.24L98.3646 550.035C95.0045 548.07 91.7286 545.989 88.5368 543.793C81.3554 538.835 74.6084 533.277 68.3686 527.178C59.923 518.931 52.481 509.717 46.197 499.727C31.4379 476.309 23.6193 449.192 23.6467 421.517C8.70001 395.311 -0.015625 363.918 -0.015625 330.185C-0.015625 287.624 13.8347 248.799 36.59 219.409C41.3341 213.268 46.5306 207.491 52.1362 202.124C57.6672 196.814 63.612 191.951 69.9145 187.583C74.957 184.084 80.2269 180.924 85.6894 178.125C87.9689 176.966 90.2563 175.871 92.5831 174.854C94.6259 173.948 96.6924 173.104 98.7826 172.308C101.291 171.357 103.831 170.482 106.402 169.684C108.973 168.885 111.51 168.186 114.013 167.587C117.694 166.689 121.438 165.958 125.245 165.396C128.4 164.931 131.555 164.608 134.71 164.363C137.218 164.174 139.75 164.072 142.298 164.04H143.678C146.486 164.04 149.278 164.151 152.047 164.34C152.338 163.757 152.654 163.165 152.946 162.59C154.05 160.486 155.194 158.389 156.345 156.34C156.343 156.322 156.343 156.303 156.345 156.285C156.542 155.922 156.74 155.568 156.945 155.221C157.875 153.542 158.846 151.879 159.839 150.232C160.297 149.444 160.746 148.703 161.212 147.962C161.31 147.778 161.418 147.599 161.535 147.426C162.008 146.638 162.49 145.85 162.979 145.061C165.413 141.173 167.945 137.353 170.574 133.601L171.245 132.64C171.655 132.057 172.033 131.489 172.491 130.906C173.579 129.385 174.699 127.856 175.827 126.358C176.616 125.286 177.405 124.222 178.257 123.206C180.307 120.578 182.411 117.951 184.567 115.324C186.722 112.697 188.963 110.104 191.287 107.545C191.602 107.19 191.918 106.843 192.249 106.497L195.617 102.824C195.783 102.65 195.924 102.493 196.082 102.335C196.484 101.902 196.871 101.468 197.305 101.05C199.111 99.1351 200.965 97.2593 202.826 95.3914C212.299 85.9629 222.391 77.1764 233.035 69.0904C233.453 68.7594 233.879 68.4441 234.297 68.1288C236.3 66.6234 238.335 65.1338 240.37 63.6678C251.563 55.6439 263.264 48.3514 275.398 41.8357C276.235 41.355 277.086 40.9057 277.946 40.4643C288.825 34.7132 300.013 29.5666 311.46 25.0479C317.699 22.5809 324.08 20.2637 330.5 18.1436C334.775 16.7406 339.066 15.4087 343.412 14.1555C350.206 12.2008 357.047 10.4485 363.935 8.89843C384.229 4.34825 404.874 1.53744 425.647 0.496617C431.957 0.176098 438.337 0.0105859 444.789 7.70386e-05C475.921 -0.0411075 506.932 3.87867 537.073 11.6649C537.384 12.1355 537.811 12.5191 538.311 12.7797C538.812 13.0403 539.371 13.1693 539.936 13.1545H542.586C543.738 13.4698 544.881 13.785 546.033 14.1161C552.464 15.9656 558.803 17.9859 565.049 20.177L566.627 20.7445C582.045 26.223 597.047 32.8082 611.514 40.4486C624.556 47.3194 637.113 55.0719 649.098 63.6521C650.944 64.9762 652.763 66.3108 654.556 67.6559C656.733 66.2635 658.947 64.9289 661.198 63.6521C669.889 58.7059 679.12 54.7734 688.709 51.9321C708.757 46.0037 729.97 45.1747 750.42 49.5203C776.646 55.0769 800.387 68.8697 819.562 88.4871C827.369 96.5136 834.319 105.331 840.298 114.796C840.732 115.474 841.166 116.159 841.584 116.853C846.723 125.23 851.14 134.029 854.787 143.154C854.921 143.493 855.055 143.808 855.174 144.139C858.541 152.684 861.257 161.471 863.298 170.424C863.392 170.882 863.503 171.331 863.597 171.788C865.506 180.453 866.803 189.242 867.478 198.089C867.478 198.404 867.478 198.727 867.541 199.058C867.872 203.635 868.041 208.259 868.046 212.93C868.046 217.107 867.904 221.253 867.644 225.367C867.644 225.817 867.581 226.282 867.541 226.747C867.47 227.937 867.368 229.111 867.265 230.309C873.289 235.165 878.927 240.48 884.129 246.206C886.426 248.713 888.651 251.314 890.801 254.009C897.352 262.213 903.109 271.02 907.996 280.31C921.334 305.468 929 335.064 929 366.74Z"
        fill="#8A277F"
    />
    <path
        opacity="0.1"
        d="M839.871 556.238C839.871 561.621 821.312 566.665 788.926 571H176.354C149.1 571.058 122.316 563.903 98.7261 550.264L98.3633 550.059C107.67 546.669 124.471 543.509 147.336 540.656L148.362 540.53C158.616 539.277 170.076 538.086 182.601 536.959C182.917 536.959 183.24 536.912 183.556 536.873C193.494 535.99 204.066 535.162 215.271 534.39C215.626 534.39 215.973 534.327 216.328 534.311C220.65 534.001 225.062 533.707 229.563 533.428L231.298 533.318C264.071 531.285 301.323 529.661 341.723 528.589H341.77C347.428 528.431 353.146 528.292 358.925 528.171C365.351 528.019 371.855 527.885 378.439 527.769C383.463 527.659 388.551 527.58 393.654 527.501H393.772C416.796 527.155 440.584 526.981 464.909 526.981C525.059 526.981 581.911 528.077 632.289 530.047H632.431C640.176 530.347 647.78 530.678 655.194 531.017L661.504 531.316C669.87 531.715 678.02 532.144 685.955 532.601C779.263 537.905 839.871 546.52 839.871 556.238Z"
        fill="#8A277F"
    />
    <g opacity="0.2">
        <path
        d="M536.566 523.364C536.541 524.214 536.444 525.06 536.275 525.894C530.785 525.021 525.264 524.233 519.711 523.529C519.711 523.308 519.711 523.08 519.711 522.851C519.762 520.488 520.443 518.181 521.683 516.168C523.308 513.598 525.776 511.99 528.498 512.077C531.219 512.164 533.577 513.921 535.036 516.577C536.14 518.664 536.668 521.006 536.566 523.364Z"
        fill="#3F3D56"
        />
        <path
        d="M537.021 509.895C537.213 503.8 533.593 498.739 528.934 498.592C524.275 498.445 520.343 503.267 520.15 509.363C519.957 515.458 523.577 520.518 528.236 520.666C532.895 520.813 536.828 515.991 537.021 509.895Z"
        fill="#3F3D56"
        />
        <path
        d="M537.45 496.402C537.643 490.306 534.023 485.246 529.364 485.099C524.705 484.951 520.772 489.773 520.579 495.869C520.387 501.964 524.007 507.025 528.666 507.172C533.325 507.319 537.257 502.497 537.45 496.402Z"
        fill="#3F3D56"
        />
        <path
        d="M537.872 482.908C538.065 476.813 534.444 471.752 529.786 471.605C525.127 471.458 521.194 476.28 521.001 482.375C520.809 488.471 524.429 493.531 529.088 493.678C533.746 493.825 537.679 489.003 537.872 482.908Z"
        fill="#3F3D56"
        />
        <path
        d="M538.294 469.414C538.487 463.319 534.866 458.258 530.208 458.111C525.549 457.964 521.616 462.786 521.423 468.881C521.23 474.977 524.851 480.037 529.51 480.184C534.168 480.331 538.101 475.509 538.294 469.414Z"
        fill="#3F3D56"
        />
        <path
        d="M501.151 375.788C500.041 374.285 499.039 372.705 498.154 371.059L520.444 368.119L496.451 367.544C494.309 362.469 493.227 357.011 493.269 351.503C493.311 345.996 494.477 340.555 496.695 335.513L528.34 353.207L499.353 330.477C502.277 325.751 506.145 321.678 510.715 318.513C515.285 315.348 520.459 313.158 525.914 312.081C531.369 311.004 536.988 311.062 542.419 312.252C547.85 313.442 552.978 315.739 557.481 318.998C561.984 322.257 565.767 326.409 568.592 331.195C571.417 335.981 573.225 341.297 573.902 346.812C574.578 352.327 574.11 357.922 572.526 363.248C570.941 368.574 568.275 373.516 564.693 377.766C566.42 380.104 567.888 382.622 569.07 385.278L539.816 399.307L570.837 389.983C572.791 396.424 573.106 403.251 571.753 409.844C570.401 416.438 567.424 422.59 563.092 427.744C567.596 433.85 570.289 441.099 570.864 448.663C571.438 456.227 569.871 463.799 566.342 470.515C562.812 477.231 557.463 482.818 550.905 486.639C544.347 490.46 536.846 492.359 529.258 492.12C521.671 491.881 514.304 489.513 508 485.287C501.696 481.061 496.709 475.148 493.61 468.224C490.511 461.299 489.425 453.643 490.475 446.13C491.526 438.618 494.671 431.552 499.55 425.742C494.17 418.445 491.4 409.552 491.686 400.492C491.972 391.432 495.297 382.732 501.128 375.788H501.151Z"
        fill="#8A277F"
        />
        <path
        opacity="0.1"
        d="M572.557 403.043C572.281 412.108 568.945 420.813 563.092 427.744C567.595 433.85 570.289 441.099 570.864 448.663C571.438 456.227 569.871 463.799 566.342 470.515C562.812 477.231 557.463 482.819 550.905 486.639C544.347 490.46 536.846 492.359 529.258 492.12C521.671 491.881 514.304 489.513 508 485.287C501.696 481.062 496.709 475.148 493.61 468.224C490.511 461.299 489.425 453.643 490.475 446.13C491.526 438.618 494.671 431.552 499.55 425.742C494.368 418.704 572.699 398.511 572.557 403.043Z"
        fill="black"
        />
    </g>
    <g opacity="0.2">
        <path
        d="M416.68 523.364C416.654 524.214 416.557 525.06 416.388 525.894C410.898 525.021 405.377 524.233 399.824 523.529C399.824 523.308 399.824 523.08 399.824 522.851C399.876 520.488 400.556 518.181 401.796 516.168C403.421 513.598 405.89 511.99 408.611 512.077C411.332 512.164 413.69 513.921 415.15 516.577C416.253 518.664 416.781 521.006 416.68 523.364Z"
        fill="#3F3D56"
        />
        <path
        d="M417.122 509.899C417.315 503.803 413.694 498.743 409.036 498.596C404.377 498.449 400.444 503.271 400.251 509.366C400.059 515.461 403.679 520.522 408.338 520.669C412.996 520.816 416.929 515.994 417.122 509.899Z"
        fill="#3F3D56"
        />
        <path
        d="M417.556 496.405C417.748 490.309 414.128 485.249 409.469 485.102C404.811 484.955 400.878 489.777 400.685 495.872C400.492 501.967 404.113 507.028 408.771 507.175C413.43 507.322 417.363 502.5 417.556 496.405Z"
        fill="#3F3D56"
        />
        <path
        d="M417.978 482.911C418.17 476.816 414.55 471.755 409.891 471.608C405.233 471.461 401.3 476.283 401.107 482.378C400.914 488.474 404.534 493.534 409.193 493.681C413.852 493.829 417.785 489.007 417.978 482.911Z"
        fill="#3F3D56"
        />
        <path
        d="M418.399 469.417C418.592 463.322 414.972 458.262 410.313 458.114C405.654 457.967 401.721 462.789 401.529 468.885C401.336 474.98 404.956 480.041 409.615 480.188C414.274 480.335 418.207 475.513 418.399 469.417Z"
        fill="#3F3D56"
        />
        <path
        d="M381.265 375.788C380.154 374.285 379.152 372.705 378.268 371.059L400.557 368.119L376.564 367.544C374.423 362.469 373.34 357.011 373.382 351.503C373.424 345.996 374.59 340.555 376.808 335.513L408.453 353.207L379.466 330.477C382.391 325.751 386.258 321.678 390.829 318.513C395.399 315.348 400.573 313.158 406.028 312.081C411.482 311.004 417.101 311.062 422.532 312.252C427.964 313.442 433.091 315.739 437.594 318.998C442.098 322.257 445.88 326.409 448.705 331.195C451.531 335.981 453.338 341.297 454.015 346.812C454.692 352.327 454.223 357.922 452.639 363.248C451.054 368.574 448.388 373.516 444.806 377.766C446.534 380.104 448.002 382.622 449.184 385.278L419.929 399.307L450.95 389.983C452.904 396.424 453.219 403.251 451.866 409.844C450.514 416.438 447.537 422.59 443.205 427.744C447.709 433.85 450.402 441.099 450.977 448.663C451.552 456.227 449.985 463.799 446.455 470.515C442.926 477.231 437.576 482.818 431.018 486.639C424.46 490.46 416.959 492.359 409.371 492.12C401.784 491.881 394.417 489.513 388.113 485.287C381.809 481.061 376.823 475.148 373.723 468.224C370.624 461.299 369.538 453.643 370.588 446.13C371.639 438.618 374.784 431.552 379.664 425.742C374.283 418.445 371.513 409.552 371.799 400.492C372.085 391.432 375.411 382.732 381.241 375.788H381.265Z"
        fill="#8A277F"
        />
        <path
        opacity="0.1"
        d="M452.67 403.043C452.394 412.108 449.058 420.813 443.205 427.744C447.709 433.85 450.402 441.099 450.977 448.663C451.552 456.227 449.985 463.799 446.455 470.515C442.926 477.231 437.576 482.819 431.018 486.639C424.46 490.46 416.959 492.359 409.371 492.12C401.784 491.881 394.417 489.513 388.113 485.287C381.809 481.062 376.823 475.148 373.723 468.224C370.624 461.299 369.538 453.643 370.588 446.13C371.639 438.618 374.784 431.552 379.664 425.742C374.482 418.704 452.812 398.511 452.67 403.043Z"
        fill="black"
        />
    </g>
    <g opacity="0.2">
        <path
        d="M744.164 531.986C744.104 533.596 743.912 535.199 743.589 536.778C733.019 535.091 722.374 533.583 711.652 532.254C711.652 531.828 711.652 531.395 711.652 530.954C711.752 526.402 713.065 521.959 715.454 518.083C718.609 513.141 723.342 510.044 728.571 510.201C733.8 510.359 738.351 513.756 741.191 518.871C743.332 522.901 744.359 527.428 744.164 531.986Z"
        fill="#3F3D56"
        />
        <path
        d="M745.023 506.037C745.395 494.299 738.421 484.553 729.448 484.27C720.474 483.987 712.899 493.273 712.528 505.011C712.156 516.749 719.13 526.495 728.103 526.778C737.077 527.061 744.652 517.775 745.023 506.037Z"
        fill="#3F3D56"
        />
        <path
        d="M745.844 480.059C746.215 468.32 739.242 458.575 730.268 458.292C721.295 458.008 713.719 467.294 713.348 479.033C712.977 490.771 719.95 500.516 728.924 500.8C737.897 501.083 745.473 491.797 745.844 480.059Z"
        fill="#3F3D56"
        />
        <path
        d="M746.672 454.081C747.043 442.343 740.07 432.597 731.096 432.314C722.123 432.031 714.547 441.317 714.176 453.055C713.805 464.793 720.778 474.539 729.752 474.822C738.725 475.105 746.301 465.819 746.672 454.081Z"
        fill="#3F3D56"
        />
        <path
        d="M746.565 426.92C746.917 415.176 739.925 405.438 730.947 405.169C721.969 404.899 714.405 414.202 714.052 425.946C713.7 437.69 720.692 447.429 729.67 447.698C738.648 447.967 746.212 438.665 746.565 426.92Z"
        fill="#3F3D56"
        />
        <path
        d="M675.978 247.885C673.85 244.992 671.923 241.955 670.212 238.798L713.12 233.139L666.939 232.027C662.814 222.258 660.727 211.75 660.806 201.147C660.884 190.544 663.127 180.069 667.396 170.361L728.327 204.418L672.531 160.659C678.173 151.583 685.625 143.765 694.423 137.692C703.22 131.62 713.176 127.423 723.668 125.363C734.16 123.304 744.964 123.426 755.407 125.722C765.85 128.017 775.708 132.438 784.366 138.708C793.024 144.977 800.297 152.962 805.732 162.163C811.167 171.365 814.647 181.586 815.956 192.19C817.264 202.795 816.373 213.555 813.337 223.8C810.302 234.045 805.187 243.556 798.312 251.739C801.635 256.243 804.462 261.092 806.744 266.202L750.42 293.228L810.136 275.258C813.899 287.643 814.512 300.771 811.919 313.453C809.325 326.135 803.608 337.97 795.284 347.887C803.952 359.643 809.136 373.598 810.241 388.159C811.347 402.719 808.329 417.297 801.534 430.224C794.739 443.152 784.441 453.908 771.816 461.262C759.192 468.617 744.751 472.273 730.146 471.813C715.54 471.353 701.358 466.795 689.223 458.66C677.087 450.526 667.487 439.143 661.521 425.813C655.554 412.483 653.462 397.745 655.483 383.283C657.504 368.821 663.557 355.219 672.949 344.033C662.596 329.985 657.267 312.869 657.816 295.432C658.365 277.994 664.761 261.247 675.978 247.877V247.885Z"
        fill="#8A277F"
        />
        <path
        opacity="0.1"
        d="M813.456 300.345C812.939 317.786 806.547 334.543 795.315 347.903C803.984 359.658 809.167 373.614 810.272 388.174C811.378 402.735 808.36 417.312 801.565 430.24C794.77 443.168 784.472 453.923 771.848 461.278C759.223 468.633 744.783 472.289 730.177 471.829C715.571 471.368 701.39 466.81 689.254 458.676C677.118 450.541 667.518 439.158 661.552 425.829C655.585 412.499 653.493 397.761 655.514 383.299C657.535 368.837 663.588 355.235 672.981 344.049C662.932 330.484 813.732 291.62 813.456 300.345Z"
        fill="black"
        />
    </g>
    <path
        d="M124.48 533.373L132.754 533.35H144.42L159.169 293.922L305.237 50.3557L298.888 43.546V26.301L140.918 288.278L124.48 533.373Z"
        fill="#F1C0C0"
    />
    <path
        opacity="0.1"
        d="M133.637 533.349H144.419L159.168 293.921L305.236 50.3556L298.887 43.5459L148.221 290.272L133.637 533.349Z"
        fill="black"
    />
    <path
        d="M100.102 535.367L478.581 564.309L478.904 564.332L845.19 541.822L845.466 541.807V526.351L441.865 518.95L105.142 518.627H102.681L102.413 520.361L100.102 535.367Z"
        fill="#F1C0C0"
    />
    <path
        opacity="0.1"
        d="M100.102 535.367L478.581 564.309L478.904 564.332L845.19 541.822L845.466 541.523V526.674H845.142L478.581 538.906L105.142 518.627H105.086L104.424 519.06L102.413 520.361L100.102 535.367Z"
        fill="black"
    />
    <path
        opacity="0.1"
        d="M100.102 535.367L478.581 564.308V538.906L104.424 519.06L102.413 520.36L100.102 535.367Z"
        fill="black"
    />
    <path
        d="M298.84 43.2227L465.699 222.183L460.541 536.975L474.714 538.685L474.951 538.717H489.125L490.82 235.7L803.266 339.99L808.535 525.681L819.94 526.957L823.805 527.391L814.861 327.111L488.241 212.528L309.149 26.4822H298.84V43.2227Z"
        fill="#F1C0C0"
    />
    <path
        opacity="0.1"
        d="M489.535 229.907L490.821 235.7L803.266 339.99L808.535 525.681L819.941 526.958L810.996 336.128L489.535 229.907Z"
        fill="black"
    />
    <path
        opacity="0.1"
        d="M298.84 43.2227L465.699 222.183L460.541 536.975L474.714 538.685L478.579 211.882L298.84 26.4822V43.2227Z"
        fill="black"
    />
    <path
        d="M490.141 356.242L604.737 378.791L604.777 378.799L805.489 418.309L814.678 414.629L814.646 413.982L814.047 401.175L490.259 335.797L490.141 356.242Z"
        fill="#F1C0C0"
    />
    <path
        opacity="0.1"
        d="M604.777 378.799L805.489 418.309L814.678 414.629L814.647 413.982L604.777 378.799Z"
        fill="black"
    />
    <path
        d="M612.453 276.298L615.553 446.809L617.154 534.287L631.265 533.814L640.146 533.515L637.385 278.765L631.265 276.732L629.924 276.298H612.453Z"
        fill="#F1C0C0"
    />
    <path
        opacity="0.1"
        d="M612.578 276.259V276.298L615.552 446.809L617.153 534.287L631.264 533.814V276.259H612.578Z"
        fill="black"
    />
    <path
        d="M391.424 319.844C392.252 320.294 393.043 320.808 393.79 321.381C394.674 322.154 395.468 323.024 396.156 323.974C399.54 328.348 402.664 333.432 402.332 338.949C402.339 339.752 402.188 340.548 401.886 341.292C401.584 342.036 401.138 342.713 400.573 343.284C399.177 344.474 397.174 344.529 395.344 344.529C393.356 344.529 391.266 344.529 389.547 343.505C387.827 342.48 386.392 340.486 384.357 340.533C384.07 340.581 383.776 340.581 383.489 340.533C382.787 340.305 382.645 339.383 382.188 338.8C381.399 337.751 379.735 338.011 378.496 338.469C377.258 338.926 375.886 339.611 374.663 339.083C373.953 338.709 373.373 338.129 372.999 337.42C370.073 332.691 369.45 327.009 368.897 321.515C368.558 318.173 365.971 306.776 373.109 309.37C376.264 310.504 379.214 312.774 382.085 314.437L391.424 319.844Z"
        fill="#3F3D56"
    />
    <path
        d="M384.37 320.971C385.007 321.429 385.78 321.661 386.565 321.63C387.349 321.599 388.101 321.306 388.7 320.798C389.874 319.737 390.623 318.286 390.806 316.715C391.595 316.471 391.997 317.503 392.502 318.134C393.385 319.206 395.183 319.19 395.988 320.333C396.548 321.121 396.422 322.217 396.816 323.107C397.329 324.258 398.599 324.857 399.466 325.787C400.286 326.803 400.877 327.983 401.201 329.247L402.495 333.125C403.114 334.737 403.512 336.426 403.678 338.145C403.76 339.005 403.669 339.872 403.412 340.696C403.155 341.52 402.736 342.285 402.18 342.945C400.444 344.813 397.597 345.01 395.081 344.955C394.241 344.973 393.402 344.875 392.588 344.663C390.356 343.97 388.929 341.724 388.337 339.462C387.745 337.2 387.809 334.827 387.462 332.51C387.087 330.234 386.424 328.014 385.49 325.905C384.796 324.266 382.887 321.822 382.918 320.081C383.486 320.081 383.896 320.601 384.37 320.971Z"
        fill="#3F3D56"
    />
    <path
        d="M387.205 312.987C386.836 311.868 386.621 310.704 386.566 309.527C386.566 307.163 387.646 304.94 388.735 302.828L379.719 304.049C378.631 304.199 377.416 304.42 376.801 305.326C376.567 305.775 376.445 306.274 376.445 306.78C376.445 307.286 376.567 307.785 376.801 308.234C377.253 309.134 377.612 310.076 377.874 311.048C377.894 311.899 377.992 312.745 378.166 313.578C378.446 314.19 378.839 314.743 379.325 315.21C381.904 318.063 383.837 321.428 385.761 324.762C385.706 324.668 391.196 320.419 390.975 319.032C390.849 318.244 389.263 317.298 388.758 316.542C388.061 315.443 387.537 314.245 387.205 312.987Z"
        fill="#BE6F72"
    />
    <path
        d="M464.501 282.194V289.957L331.464 315.888L324.562 320.065H300.75V315.691L431.461 284.132L464.501 282.194Z"
        fill="#F1C0C0"
    />
    <path
        opacity="0.1"
        d="M464.501 289.957L331.464 315.888L324.562 320.065H300.75L432.431 291.904L464.501 289.957Z"
        fill="black"
    />
    <path
        d="M357.688 502.58C356.206 500.786 354.16 499.546 351.882 499.063C349.605 498.579 347.231 498.88 345.147 499.916C344.701 500.126 344.307 500.433 343.995 500.814C343.207 501.918 343.712 503.439 343.783 504.802C343.964 508.128 341.314 510.832 338.932 513.157C337.654 514.402 336.353 515.734 335.777 517.429C335.201 519.123 335.627 521.275 337.173 522.158C337.847 522.496 338.582 522.699 339.334 522.757C341.855 523.248 344.44 523.32 346.985 522.969C349.501 522.489 351.97 521.062 353.058 518.745C353.268 518.117 353.616 517.543 354.076 517.066C355.464 515.971 357.593 517.255 359.171 516.475C360.472 515.829 360.528 514.812 360.543 513.472C360.591 509.768 360.039 505.575 357.688 502.58Z"
        fill="#8A277F"
    />
    <path
        d="M376.618 502.438C377.588 504.991 377.723 507.774 377.849 510.501C377.92 512.077 377.967 513.764 377.115 515.096C376.263 516.428 374.599 517.129 373.006 517.46C369.717 518.138 365.907 517.5 363.785 514.891C362.161 512.897 361.821 510.162 362.121 507.577C362.374 505.456 362.91 502.974 361.388 501.468C360.993 501.066 360.481 500.783 360.118 500.349C359.329 499.388 359.455 497.937 359.881 496.755C360.436 495.625 360.852 494.431 361.119 493.201C361.183 492.617 371.799 493.61 372.777 494.091C374.11 494.745 373.905 495.841 374.307 497.165C374.867 499.009 375.94 500.672 376.618 502.438Z"
        fill="#8A277F"
    />
    <path
        d="M378.565 389.21C380.647 390.558 381.452 393.206 381.775 395.666C382.666 402.404 381.105 409.214 380.986 416.016C380.876 425.545 383.637 435.247 381.278 444.476C379.866 449.994 381.065 456.299 379.74 461.871C379.346 463.526 378.62 465.087 378.242 466.742C377.453 470.328 378.281 474.08 379.393 477.587C379.748 478.532 379.974 479.521 380.064 480.527C380.01 482.075 379.617 483.593 378.912 484.972L374.18 496.156C373.651 497.409 371.569 497.614 370.236 497.78C367.728 498.079 364.928 498.292 362.932 496.739C360.937 495.187 360.455 492.586 360.148 490.158C359.558 485.498 359.294 480.802 359.359 476.105C359.446 474.88 359.337 473.648 359.036 472.456C358.602 471.108 357.647 469.942 357.387 468.515C357.056 466.671 357.994 464.858 358.342 462.998C358.58 461.299 358.553 459.574 358.263 457.883C357.955 455.361 357.6 452.839 357.198 450.332C356.63 446.825 357.442 443.365 357.987 439.85C358.499 436.548 357.845 433.182 357.198 429.903C357.254 432.564 356.922 435.219 356.212 437.785C355.794 439.038 355.194 440.236 354.832 441.513C353.215 447.243 356.662 453.257 356.172 459.191C355.944 461.966 354.855 464.709 355.163 467.443C355.376 469.445 356.307 471.282 356.945 473.189C357.584 475.097 357.916 477.28 356.945 479.061C354.382 483.9 356.299 490.481 358.594 495.447C359.06 496.327 359.466 497.239 359.809 498.174C360.487 500.412 359.919 502.816 360.1 505.149C359.44 505.257 358.763 505.213 358.122 505.021C357.481 504.828 356.893 504.492 356.401 504.038C356.054 503.675 355.77 503.25 355.431 502.871C354.483 501.969 353.362 501.269 352.134 500.814C351.413 500.411 350.592 500.222 349.768 500.27C348.901 500.512 348.121 500.996 347.52 501.665C346.74 502.351 345.912 502.98 345.043 503.549C344.673 503.833 344.241 504.025 343.781 504.109C343.55 504.144 343.314 504.107 343.106 504C342.898 503.894 342.728 503.725 342.622 503.518C342.573 503.386 342.543 503.248 342.535 503.108C342.242 500.728 342.087 498.333 342.07 495.936C342.07 491.813 337.132 488.976 336.509 484.901C336.012 481.615 336.935 478.265 336.627 474.955C336.478 473.252 336.004 471.581 336.036 469.879C336.036 468.775 336.288 467.696 336.375 466.6C336.447 465.384 336.429 464.164 336.32 462.951L336.075 459.144C335.839 455.385 335.578 451.546 334.096 448.11C332.337 444.097 331.296 439.808 331.019 435.436C330.862 432.678 330.964 429.919 330.649 427.153C330.365 424.654 329.734 422.171 329.915 419.665C330.065 417.726 330.704 415.85 330.854 413.911C331.161 410.183 329.742 406.558 328.629 402.988C327.517 399.417 326.697 395.461 328.156 392.016C328.365 391.451 328.712 390.947 329.166 390.55C329.725 390.18 330.362 389.943 331.027 389.857C344.56 387.016 358.431 386.132 372.216 387.232C374.463 387.36 376.644 388.039 378.565 389.21Z"
        fill="#3F3D56"
    />
    <path
        d="M333.788 305.5C340.767 305.5 346.424 299.847 346.424 292.873C346.424 285.9 340.767 280.247 333.788 280.247C326.81 280.247 321.152 285.9 321.152 292.873C321.152 299.847 326.81 305.5 333.788 305.5Z"
        fill="#BE6F72"
    />
    <path
        d="M331.343 308.644C331.525 309.366 331.525 310.122 331.343 310.843C331.144 311.348 330.865 311.816 330.515 312.231C329.292 313.807 327.938 315.278 326.469 316.628C327.217 318.299 328.565 319.63 330.247 320.357C331.916 321.067 333.668 321.567 335.46 321.846C336.355 322.081 337.287 322.145 338.205 322.035C339.052 321.823 339.853 321.46 340.572 320.963L347.591 316.762C348.651 316.189 349.631 315.482 350.51 314.658C351.797 313.336 352.526 311.569 352.545 309.724C352.577 309.394 352.488 309.063 352.292 308.794C352.023 308.56 351.686 308.419 351.33 308.392C348.861 307.848 346.913 305.846 345.809 303.577C344.811 301.25 344.165 298.787 343.892 296.27L336.407 300.211C335.295 300.802 334.191 301.393 333.039 301.906C332.305 302.237 330.823 302.513 330.302 303.182C329.308 304.42 331.083 307.155 331.343 308.644Z"
        fill="#BE6F72"
    />
    <path
        d="M326.516 314.335C325.45 315.208 324.618 316.332 324.094 317.606C323.605 319.182 324.094 320.845 324.536 322.406C326.606 329.057 328.188 335.851 329.269 342.732C329.931 347.461 330.176 352.261 330.499 357.046C331.162 366.803 332.124 382.361 333.409 392.056C338.142 392.268 342.756 390.889 347.449 390.385C356.22 389.455 365.251 391.583 373.841 389.597C371.758 381.376 369.676 367.339 367.594 359.126C366.672 355.89 366.034 352.581 365.685 349.235C365.504 346.831 365.614 344.419 365.646 341.999C365.717 337.271 365.456 332.542 365.196 327.813C364.896 322.295 364.596 316.778 363.287 311.379C363.196 310.691 362.873 310.055 362.372 309.574C361.583 308.999 360.558 309.204 359.619 309.33C356.746 309.695 353.837 309.006 351.432 307.391C350.391 306.682 348.995 305.815 348.025 306.603C347.611 307.079 347.338 307.66 347.236 308.282C346.807 309.397 346.144 310.407 345.293 311.246C344.441 312.085 343.421 312.732 342.299 313.145C340.051 313.958 337.697 314.441 335.31 314.579C334.58 314.736 333.818 314.65 333.141 314.335C332.021 313.649 331.942 311.182 330.531 311.017C329.292 310.875 327.352 313.539 326.516 314.335Z"
        fill="#3F3D56"
    />
    <path
        d="M345.18 333.582C342.269 330.8 340.991 326.764 338.87 323.336C337.425 321.03 335.579 319.002 333.419 317.346C332.334 316.629 331.338 315.785 330.454 314.831C329.704 313.909 329.137 312.68 328.001 312.325C327.531 312.223 327.044 312.236 326.581 312.364C326.118 312.492 325.693 312.73 325.343 313.058C324.647 313.72 323.989 314.42 323.371 315.155C320.026 318.615 314.15 319.095 311.5 323.099C310.785 323.948 310.299 324.965 310.088 326.055C309.325 331.882 310.833 337.78 314.3 342.527C314.971 343.628 316.002 344.463 317.219 344.892C317.054 346.361 317.249 347.849 317.786 349.227C319.247 354.215 321.041 359.1 323.158 363.847C322.652 365.704 322.298 367.6 322.101 369.514C321.549 374.33 322.061 379.216 321.541 384.04C321.115 387.981 319.963 391.819 319.924 395.768C319.924 396.398 319.979 397.147 320.523 397.47C320.813 397.619 321.137 397.687 321.462 397.667L331.164 397.959C336.795 398.124 342.482 398.29 348.027 397.25C348.765 397.14 349.482 396.914 350.149 396.58C352.026 395.531 352.649 393.167 352.949 391.062C353.34 388.333 353.496 385.575 353.414 382.818C354.589 386.53 355.985 390.369 359.535 391.977C361.412 392.828 363.557 392.765 365.616 392.71C370.053 392.512 374.475 392.057 378.859 391.346C379.129 391.38 379.403 391.35 379.66 391.258C379.916 391.167 380.148 391.016 380.336 390.82C380.523 390.623 380.662 390.384 380.742 390.124C380.821 389.864 380.838 389.589 380.791 389.321L380.839 385.017C380.933 376.277 378.764 367.922 377.92 359.221C377.652 356.478 377.676 353.704 377.005 351.016C376.729 349.889 376.327 348.785 376.083 347.65C375.872 346.539 375.74 345.415 375.688 344.285L375.073 335.615C374.781 331.603 374.363 327.734 374.056 323.73C373.886 319.831 373.321 315.96 372.368 312.175C371.681 309.811 370.254 307.131 367.785 306.839C366.468 306.69 365.19 307.265 363.936 307.667C360.853 308.637 357.545 308.623 354.471 307.628C353.521 307.253 352.531 306.988 351.521 306.839C351.013 306.77 350.495 306.837 350.021 307.034C349.547 307.231 349.134 307.55 348.824 307.959C348.518 308.574 348.374 309.258 348.406 309.945C348.035 317.819 347.349 325.929 345.18 333.582Z"
        fill="#8A277F"
    />
    <path
        d="M332.489 333.818C328.853 329.988 325.122 326.086 320.437 323.651C318.591 322.69 316.493 321.964 314.45 322.327C312.407 322.69 310.506 324.463 310.601 326.536C310.664 327.82 311.445 328.955 311.69 330.216C311.973 331.635 311.563 333.148 312.005 334.52C312.364 335.424 312.9 336.246 313.583 336.939L319.167 343.552C321.533 346.311 323.899 349.109 326.944 351.016C329.988 352.923 333.932 353.814 337.276 352.458C339.656 351.353 341.634 349.539 342.94 347.264C344.328 345.058 345.306 342.646 346.607 340.368C348.633 336.728 351.306 333.489 354.495 330.808C352.854 330.382 350.796 329.783 349.762 328.443C349.468 328.017 349.217 327.563 349.013 327.087L347.735 324.329C347.301 324.306 346.866 324.374 346.459 324.527C346.052 324.68 345.681 324.916 345.369 325.22C344.821 325.852 344.234 326.45 343.61 327.009C342.498 327.844 340.991 328.073 339.982 329.026C339.591 329.436 339.238 329.879 338.925 330.35C338.161 331.353 337.192 332.182 336.082 332.78C334.972 333.378 333.747 333.732 332.489 333.818Z"
        fill="#3F3D56"
    />
    <path
        d="M354.786 317.338C357.523 312.349 357.396 306.367 358.177 300.731C358.262 299.239 358.786 297.805 359.684 296.609C361.261 294.828 364.046 294.804 366.428 295.033C367.13 295.112 368.005 295.443 367.966 296.144C367.91 296.395 367.788 296.627 367.611 296.814C365.302 299.792 363.944 303.395 363.714 307.155C364.953 308.014 366.869 306.248 368.06 307.155C368.849 307.817 368.486 309.125 368.013 310.071C366.914 312.262 365.781 314.437 364.613 316.597C363.682 318.5 362.466 320.252 361.009 321.791C360.007 322.753 358.832 323.509 357.814 324.455C355.448 326.67 354.021 329.799 351.575 331.958C351.369 332.182 351.089 332.324 350.787 332.36C350.476 332.338 350.182 332.207 349.959 331.99C348.737 330.997 347.724 329.773 346.977 328.388C346.046 326.67 346.188 326.165 347.655 324.951C350.4 322.784 353.074 320.459 354.786 317.338Z"
        fill="#BE6F72"
    />
    <path
        d="M327.913 330.429C328.386 330.721 328.97 331.052 329.49 330.808C329.703 330.679 329.884 330.504 330.019 330.295C330.921 329.093 331.673 327.785 332.259 326.402C332.36 326.206 332.416 325.991 332.425 325.771C332.425 325.267 331.975 324.896 331.557 324.605C329.317 323.178 326.909 322.035 324.387 321.2C322.305 320.412 320.128 319.726 317.92 319.923C317.09 319.979 316.28 320.202 315.538 320.578C314.797 320.955 314.139 321.477 313.605 322.114C312.028 324.14 314.67 324.755 316.326 325.488C320.16 327.229 324.308 328.238 327.913 330.429Z"
        fill="#8A277F"
    />
    <path
        opacity="0.1"
        d="M325.427 343.828C325.4 344.008 325.416 344.192 325.474 344.364C325.531 344.537 325.629 344.693 325.758 344.821C325.987 343.702 325.687 342.52 325.923 341.393C326.271 339.698 327.919 338.421 328.061 336.719C325.04 336.128 325.45 342 325.427 343.828Z"
        fill="black"
    />
    <path
        opacity="0.2"
        d="M464.501 282.194V289.957L432.431 291.904L431.461 284.132L464.501 282.194Z"
        fill="black"
    />
    <path
        d="M322.416 294.749C324.42 293.118 323.26 289.697 324.617 287.506C325.406 286.308 326.739 285.677 328.048 285.141C329.628 284.403 331.321 283.934 333.057 283.754C333.926 283.671 334.802 283.784 335.622 284.086C336.441 284.387 337.182 284.869 337.789 285.496C338.302 286.079 338.649 286.789 339.13 287.396C339.726 288.104 340.502 288.637 341.377 288.94C342.252 289.242 343.193 289.302 344.099 289.114C345.148 288.877 346.237 288.081 346.166 287.009C346.047 286.357 345.714 285.764 345.219 285.323L342.963 282.824C340.4 279.987 337.552 276.976 333.79 276.267C331.171 275.77 328.49 276.472 325.966 277.315C324.948 277.654 323.805 278.158 323.521 279.191C323.331 279.9 323.615 280.672 323.45 281.39C323.126 282.816 321.296 283.297 320.445 284.495C319.593 285.693 319.853 287.112 319.608 288.436C319.364 289.76 318.654 291.053 318.567 292.424C318.512 293.252 318.93 294.788 319.861 295.088C320.792 295.387 321.841 293.764 322.416 294.749Z"
        fill="#3F3D56"
    />
    <path
        d="M345.4 285.874C344.735 282.407 343.301 279.132 341.204 276.29C339.339 273.635 336.744 271.577 333.734 270.363C332.229 269.776 330.611 269.537 329 269.663C327.39 269.79 325.829 270.28 324.435 271.096C322.365 272.572 320.755 274.602 319.789 276.952C317.746 281.35 316.989 286.726 319.363 290.95C320.31 289.8 321.935 290.32 323.37 289.902C325.168 289.39 326.691 288.192 328.402 287.443C333.569 285.165 339.878 287.009 345.4 285.874Z"
        fill="#FED253"
    />
    <path
        opacity="0.1"
        d="M320.569 285.63C320.387 284.211 320.269 282.564 321.278 281.555C321.329 281.493 321.392 281.444 321.465 281.411C321.538 281.379 321.617 281.363 321.696 281.366C321.767 281.389 321.832 281.426 321.887 281.475C321.943 281.523 321.988 281.583 322.02 281.65C322.603 282.569 323.099 283.54 323.503 284.55C322.915 284.415 322.3 284.459 321.737 284.677C321.175 284.895 320.691 285.276 320.348 285.772"
        fill="black"
    />
    <path
        opacity="0.1"
        d="M339.004 281.626L338.72 278.813C338.674 278.581 338.693 278.341 338.775 278.119C338.894 277.933 339.077 277.798 339.29 277.74C339.503 277.682 339.729 277.705 339.926 277.804C340.314 278.019 340.634 278.338 340.849 278.726C341.506 279.733 342.051 280.809 342.474 281.934C341.204 281.689 339.897 281.705 338.633 281.981"
        fill="black"
    />
    <path
        opacity="0.1"
        d="M346.062 395.823V402.254L340.627 402.617H312.043V395.823H346.062Z"
        fill="black"
    />
    <path
        d="M346.061 395.823V402.617H312.042L221.668 289.492V284.148H240.614L346.061 395.823Z"
        fill="#F1C0C0"
    />
    <path
        opacity="0.1"
        d="M346.061 395.823V402.617H312.042L221.668 289.492V284.148H240.614L346.061 395.823Z"
        fill="black"
    />
    <path
        opacity="0.1"
        d="M346.061 395.823V402.617H312.042L221.668 289.492V284.148L312.531 395.823H346.061Z"
        fill="black"
    />
    <path
        d="M233.517 509.208C233.576 509.528 233.569 509.856 233.496 510.173C233.423 510.49 233.285 510.788 233.091 511.049C232.897 511.31 232.651 511.529 232.369 511.691C232.086 511.852 231.774 511.954 231.45 511.99C229.258 512.731 226.931 513.464 225.377 515.143C223.823 516.822 223.516 519.935 225.377 521.298C226.329 521.872 227.421 522.169 228.532 522.157C232.105 522.402 235.828 522.355 239.07 520.841C241.389 519.769 243.573 517.941 246.121 518.106C247.438 518.185 248.842 518.8 250.017 518.201C251.193 517.602 251.524 515.931 251.532 514.536C251.562 511.624 251.122 508.726 250.23 505.953C250.112 505.575 245.096 505.283 244.496 505.165L238.415 504.377C237.263 504.227 234.779 503.36 233.872 504.321C232.965 505.283 233.517 508.065 233.517 509.208Z"
        fill="#8A277F"
    />
    <path
        d="M269.805 489.535C270.062 490.955 270.48 492.34 271.051 493.665C271.895 495.809 272.975 498.087 275.042 499.127C276.919 500.065 279.222 499.726 281.131 498.836C281.928 498.506 282.626 497.977 283.158 497.299C283.774 496.226 284.049 494.992 283.947 493.76C283.947 490.71 283.765 487.557 282.369 484.846C281.17 482.481 279.08 480.448 279.049 477.831L271.863 479.218C271.479 479.255 271.112 479.4 270.806 479.636C270.579 479.876 270.421 480.173 270.349 480.495C269.582 483.445 269.397 486.515 269.805 489.535Z"
        fill="#8A277F"
    />
    <path
        d="M183.998 414.66C183.698 417.198 183.824 419.917 185.149 422.108C186.475 424.299 189.267 425.75 191.68 424.875C191.804 424.843 191.92 424.787 192.022 424.71C192.123 424.633 192.208 424.536 192.272 424.425C192.336 424.159 192.3 423.878 192.169 423.637C191.104 420.796 191.192 417.651 192.414 414.873C192.572 414.51 192.911 414.085 193.281 414.227C193.437 414.305 193.561 414.433 193.636 414.589C194.018 415.249 194.209 416.002 194.189 416.764C194.077 417.455 194.056 418.157 194.125 418.853C194.275 419.531 195.001 420.169 195.632 419.878C195.814 419.766 195.972 419.618 196.095 419.443C196.219 419.268 196.305 419.07 196.35 418.861C198.109 413.777 197.312 408.221 196.507 402.901C196.514 402.779 196.494 402.656 196.448 402.543C196.402 402.429 196.332 402.327 196.243 402.244C196.153 402.16 196.047 402.098 195.93 402.06C195.814 402.022 195.69 402.011 195.569 402.026C191.846 401.655 189.811 400.765 187.681 404.225C185.851 407.141 183.998 411.153 183.998 414.66Z"
        fill="#8A277F"
    />
    <path
        d="M227.522 401.726C226.417 406.314 225.305 410.956 225.234 415.669C225.254 418.605 225.475 421.536 225.897 424.441L226.725 431.267C227.009 433.568 227.285 435.862 227.687 438.139C227.944 439.313 228.084 440.509 228.105 441.71C228.028 442.894 227.841 444.068 227.545 445.217C227.049 447.631 226.772 450.084 226.717 452.547C226.63 456.488 227.119 460.429 227.427 464.37C228.041 472.223 227.949 480.115 227.151 487.951C226.833 490.067 227.292 492.226 228.445 494.028C228.912 494.597 229.297 495.228 229.588 495.904C230.18 497.709 228.8 499.514 228.445 501.366C228.218 502.81 228.573 504.285 229.434 505.468C230.295 506.65 231.59 507.442 233.035 507.671C239.345 508.42 245.829 508.081 251.515 510.966C252.115 509.216 250.805 507.23 251.405 505.449C251.784 504.345 252.825 503.628 253.535 502.698C254.488 501.281 254.964 499.596 254.891 497.89C254.919 495.663 254.523 493.451 253.724 491.372C253.053 489.638 252.091 487.928 252.146 486.068C252.146 485.153 252.47 484.192 252.099 483.349C251.845 482.864 251.499 482.433 251.082 482.08C248.724 479.499 247.276 476.219 246.956 472.74C246.649 469.287 246.76 465.81 247.288 462.383C247.674 459.12 248.195 455.676 250.269 453.13C249.307 445.411 249.873 437.578 251.933 430.077C252.138 429.383 252.462 428.579 253.172 428.414C253.454 428.385 253.739 428.424 254.002 428.528C254.266 428.633 254.5 428.799 254.686 429.013C255.924 430.171 256.516 431.85 257.052 433.458C257.644 435.2 258.243 437.06 257.794 438.841C257.604 439.629 257.226 440.323 257.005 441.079C256.525 442.6 256.609 444.242 257.242 445.706C257.55 446.241 257.743 446.834 257.81 447.448C257.736 447.975 257.577 448.486 257.336 448.961C257.044 449.894 256.951 450.877 257.064 451.848C257.176 452.819 257.492 453.755 257.991 454.596C258.996 456.27 260.237 457.791 261.674 459.113C260.988 462.138 261.165 465.295 262.187 468.224C262.261 468.356 262.308 468.501 262.325 468.651C262.343 468.801 262.331 468.953 262.29 469.099C262.148 469.398 261.785 469.508 261.501 469.721C260.712 470.367 261.201 471.589 261.73 472.432C263.178 474.747 264.777 476.964 266.517 479.069C268.095 480.953 267.953 484.586 270.303 485.264C271.291 485.477 272.313 485.477 273.301 485.264C275.619 484.909 278.207 484.239 279.342 482.19C279.808 481.347 279.997 480.322 280.723 479.691C281.448 479.061 282.387 478.951 282.789 478.194C283.191 477.437 282.742 476.444 282.876 475.569C283.01 474.695 283.775 473.993 284.02 473.071C284.603 470.943 282.119 469.193 281.78 467.018C281.291 463.865 285.266 461.501 285.1 458.348C284.753 451.499 284.532 444.618 284.177 437.769C283.732 431.634 283.669 425.477 283.988 419.334C284.264 415.511 284.777 411.508 283.373 407.953C281.354 402.94 275.785 400.126 270.398 399.59C265.011 399.055 259.639 400.331 254.3 401.167C245.437 402.532 236.433 402.72 227.522 401.726Z"
        fill="#3F3D56"
    />
    <path
        d="M243.534 326.394C250.513 326.394 256.17 320.741 256.17 313.767C256.17 306.794 250.513 301.141 243.534 301.141C236.556 301.141 230.898 306.794 230.898 313.767C230.898 320.741 236.556 326.394 243.534 326.394Z"
        fill="#FBBEBE"
    />
    <path
        d="M238.389 328.75C237.96 329.749 237.238 330.595 236.319 331.176C235.4 331.757 234.326 332.046 233.239 332.005C232.781 333.897 233.878 335.804 235.132 337.294C237.736 340.322 241.101 342.601 244.881 343.897C248.66 345.192 252.717 345.457 256.633 344.663C258.157 344.391 259.603 343.788 260.869 342.898C262.575 341.474 263.721 339.491 264.102 337.302C264.465 335.128 264.569 332.919 264.41 330.721C264.454 330.287 264.33 329.852 264.063 329.507C263.748 329.263 263.358 329.135 262.959 329.144C260.293 328.908 257.508 328.806 255.166 327.497C252.823 326.189 251.159 323.233 252.287 320.806C252.106 321.184 247.499 321.365 246.892 321.444C244.991 321.712 243.09 322.012 241.197 322.358C240.288 322.408 239.389 322.578 238.523 322.863C237.38 323.454 237.806 323.162 238.074 324.234C238.476 325.874 239.068 327.048 238.389 328.75Z"
        fill="#FBBEBE"
    />
    <path
        d="M248.004 336.427C246.302 336.447 244.604 336.259 242.948 335.867C241.276 335.477 239.802 334.494 238.799 333.101C238.216 332.218 237.837 331.107 236.906 330.61C235.384 329.822 233.649 331.154 232.434 332.376C231.328 333.581 230.046 334.612 228.632 335.434C226.944 336.325 224.973 336.64 223.379 337.688C222.135 338.628 221.066 339.781 220.224 341.093L209.048 356.304C204.56 362.421 200.656 368.986 196.657 375.441C193.194 381.029 191.38 387.461 188.769 393.49C188.562 393.859 188.477 394.284 188.525 394.704C188.619 395.114 189.116 395.445 189.463 395.208C188.288 396.375 189.321 398.361 189.045 400C188.731 401.147 188.077 402.172 187.168 402.94C188.904 402.714 190.666 402.796 192.374 403.184C194.138 403.684 195.803 404.484 197.295 405.549C198.25 405.399 198.163 403.705 198.873 403.074C199.299 402.704 199.93 402.751 200.49 402.641C202.596 402.231 203.432 399.701 205.049 398.274C206.398 397.084 208.306 396.698 209.734 395.579C212.053 393.758 212.55 390.519 213.764 387.831C214.798 385.553 216.423 383.567 217.33 381.234C217.921 379.721 218.205 378.081 219.049 376.686C220.398 374.432 222.938 373.234 225.359 372.154C226.889 371.469 228.514 370.759 230.162 370.87C230.076 374.535 229.61 378.144 230.407 381.723C230.683 382.984 231.07 384.213 231.401 385.467C232.907 391.11 233.262 396.989 233.333 402.806C236.957 401.977 240.658 401.534 244.376 401.482C247.302 401.395 250.22 401.774 253.147 401.718C256.617 401.655 260.048 400.985 263.519 400.749C266.989 400.512 270.617 400.749 273.685 402.325C273.436 397.33 273.576 392.324 274.103 387.35L274.94 379.516C275.128 377.24 275.479 374.98 275.989 372.753C276.446 370.956 277.109 369.222 277.613 367.433C279.388 361.128 279.065 354.397 278.726 347.832C278.552 344.458 277.251 341.14 275.72 338.137C275.167 337.022 274.534 335.947 273.827 334.922C271.978 332.376 269.514 330.34 266.665 329.003C263.815 327.666 260.673 327.072 257.532 327.276C257.131 327.289 256.735 327.374 256.365 327.529C255.699 327.955 255.179 328.573 254.874 329.302C253.242 332.233 250.874 334.689 248.004 336.427Z"
        fill="#3F3D56"
    />
    <path
        d="M232.419 317.952C232.774 317.164 233.728 316.873 234.312 316.242C235.432 315.044 234.927 313.129 235.1 311.513C235.384 309.149 237.348 307.17 239.596 306.327C241.889 305.592 244.328 305.438 246.695 305.878C247.834 305.961 248.935 306.327 249.897 306.942C250.307 307.241 250.686 307.628 251.072 307.903C251.777 308.329 252.62 308.462 253.422 308.275C254.223 308.088 254.92 307.596 255.363 306.902C252.571 303.545 249.479 299.998 245.236 298.966C243.78 298.669 242.296 298.529 240.811 298.548C238.847 298.508 236.82 298.477 235.006 299.226C232.537 300.242 230.802 302.583 229.91 305.105C229.131 307.662 228.714 310.315 228.672 312.987C228.51 314.77 228.51 316.564 228.672 318.347C228.977 320.781 229.882 323.102 231.306 325.101C231.499 325.412 231.771 325.665 232.095 325.834C235.692 327.41 232.127 318.607 232.419 317.952Z"
        fill="#3F3D56"
    />
    <path
        d="M254.952 304.956C254.519 301.244 251.868 298.178 249.053 295.711C246.783 293.572 244.08 291.945 241.126 290.942C238.152 290.067 234.729 290.257 232.181 292.03C230.131 293.456 228.829 295.726 227.827 298.012C226.511 300.709 225.86 303.682 225.927 306.682C226.124 309.661 227.575 312.68 230.162 314.185C231.093 312.814 232.71 312.104 234.264 311.545C241.036 308.977 247.942 306.778 254.952 304.956Z"
        fill="#FED253"
    />
    <path
        opacity="0.1"
        d="M231.03 303.411C231.282 303.411 231.448 303.671 231.574 303.884C232.216 304.884 232.768 305.939 233.222 307.037C232.3 307.234 230.714 307.454 230.257 306.643C230.012 306.233 230.304 303.372 231.03 303.411Z"
        fill="black"
    />
    <path
        opacity="0.1"
        d="M249.009 301.63C248.819 301.811 248.598 301.441 248.598 301.173V298.114C248.593 298.029 248.612 297.945 248.654 297.87C248.686 297.833 248.726 297.802 248.771 297.781C248.816 297.759 248.864 297.747 248.914 297.744C249.553 297.673 250.081 298.217 250.491 298.737C251.114 299.58 251.655 300.48 252.108 301.425L248.772 301.322"
        fill="black"
    />
    <path
        d="M290.643 352.269C291.369 351.581 292.144 350.946 292.962 350.37C295.147 348.912 297.789 348.336 300.242 347.406C302.695 346.476 305.188 344.971 306.142 342.527C306.62 341 306.775 339.389 306.599 337.798C306.622 337.132 306.504 336.469 306.252 335.852C305.952 335.306 305.525 334.841 305.006 334.496C301.678 332.037 297.213 331.84 293.08 332.092C283.968 332.657 275.037 334.885 266.728 338.665C266.289 338.811 265.904 339.085 265.624 339.454C265.462 339.795 265.389 340.172 265.411 340.549C265.264 342.873 265.567 345.204 266.302 347.414C267.391 350.22 269.631 352.482 270.57 355.343C270.995 356.628 271.137 357.991 271.508 359.284C271.812 360.619 272.602 361.793 273.724 362.578C276.84 364.438 279.782 361.94 281.943 360.001L290.643 352.269Z"
        fill="#3F3D56"
    />
    <path
        d="M249.843 363.185L245.844 354.468C245.257 353.26 244.751 352.015 244.329 350.74C243.872 349.219 243.651 347.643 243.225 346.114C241.821 341.022 238.28 336.782 236.552 331.793C236.443 331.342 236.22 330.927 235.905 330.587C235.653 330.409 235.365 330.288 235.061 330.233C234.757 330.179 234.445 330.192 234.147 330.271C231.733 330.689 229.848 332.526 227.639 333.566C226.614 334.039 225.51 334.354 224.484 334.898C223.972 335.141 223.518 335.491 223.153 335.925C222.788 336.359 222.521 336.866 222.371 337.412C222.126 338.618 222.725 339.777 223.23 340.951C225.376 345.79 225.865 351.197 225.959 356.494C226.03 360.056 225.849 363.879 223.743 366.74C219.697 372.257 222.284 380.359 223.798 387.035C223.98 387.823 224.193 388.674 224.319 389.51C224.452 390.555 224.513 391.609 224.5 392.662C224.5 396.201 224.303 399.851 222.82 403.058C224.284 403.837 225.898 404.293 227.553 404.398C232.133 404.981 236.731 405.391 241.348 405.628C242.794 405.764 244.253 405.689 245.678 405.407C247.37 404.95 248.862 403.942 249.918 402.544C250.973 401.145 251.532 399.435 251.507 397.683C251.759 399.866 252.225 402.239 253.81 403.752C255.395 405.265 257.706 405.494 259.86 405.612C265.937 405.934 272.03 405.763 278.08 405.1C278.466 405.082 278.845 404.994 279.2 404.84C280.367 404.256 280.43 402.648 280.335 401.356C280.162 398.936 279.981 396.517 279.689 394.113C279.441 392.58 279.315 391.031 279.31 389.478C279.43 387.881 279.694 386.299 280.099 384.749C281.156 379.831 281.992 374.811 281.637 369.774C281.497 368.547 281.447 367.312 281.487 366.078C281.692 363.296 283.159 360.647 282.883 357.881C282.094 349.747 281.455 341.4 279.184 333.55C278.774 332.147 278.253 330.642 277.031 329.838C275.453 328.782 273.237 329.334 271.431 328.664C270.583 328.27 269.777 327.792 269.025 327.237C267.39 326.216 265.517 325.64 263.59 325.566C262.139 325.511 260.522 325.834 259.647 327.001C259.241 327.657 258.973 328.389 258.858 329.152C257.714 333.96 256.373 338.713 255.033 343.465L253.747 348.021L250.3 360.253C249.961 361.554 250.19 361.956 249.843 363.185Z"
        fill="#8A277F"
    />
    <path
        d="M270.01 315.462L346.306 395.579V402.373H312.287L254.953 327.6"
        fill="#F1C0C0"
    />
    <path
        opacity="0.1"
        d="M270.01 315.462L346.306 395.579V402.373H312.287L254.953 327.6"
        fill="black"
    />
    <path
        opacity="0.1"
        d="M256.168 326.543L256.412 326.63L312.776 395.579H346.306V402.373H312.287L254.953 327.6L256.168 326.543Z"
        fill="black"
    />
    <path
        d="M264.949 328.23C262.189 329.436 259.12 330.981 258.292 333.881C258.129 334.39 258.093 334.932 258.19 335.458C258.391 336.076 258.776 336.619 259.293 337.014C259.81 337.41 260.434 337.639 261.084 337.672C262.383 337.704 263.675 337.468 264.878 336.979L281.166 331.604C281.608 331.462 282.112 331.249 282.223 330.815C282.251 330.543 282.196 330.268 282.065 330.027C281.56 328.798 281.063 326.284 280.006 325.424C279.139 324.731 277.419 324.975 276.37 324.991C272.332 325.022 268.538 326.654 264.949 328.23Z"
        fill="#8A277F"
    />
    <path
        d="M279.467 332.242C282.211 332.234 284.939 332.657 287.551 333.495C290.176 334.347 292.5 335.933 294.248 338.067C294.757 338.663 295.119 339.37 295.305 340.132C295.462 340.92 298.034 341.393 297.466 341.929C299.193 341.653 298.783 342.465 300.534 342.449C302.285 342.433 304.178 341.984 305.227 340.589C305.956 339.443 306.281 338.086 306.15 336.735C306.173 335.799 305.995 334.869 305.629 334.008C304.841 332.352 303.026 331.462 301.354 330.697L287.267 324.258C286.45 323.824 285.573 323.513 284.664 323.336C283.9 323.264 283.129 323.282 282.369 323.391L275.988 324.124C277.384 325.026 278.52 326.276 279.285 327.751C280.05 329.226 280.417 330.874 280.35 332.534"
        fill="#3F3D56"
    />
    </g>
    <defs>
    <clipPath id="clip0_921_952">
        <rect width="929" height="571" fill="white" />
    </clipPath>
    </defs>
</svg>